<?xml version="1.0" encoding="UTF-8"?>
<!DOCTYPE svg PUBLIC "-//W3C//DTD SVG 1.1//EN" "http://www.w3.org/Graphics/SVG/1.1/DTD/svg11.dtd">
<!-- Creator: CorelDRAW -->
<svg xmlns="http://www.w3.org/2000/svg" xml:space="preserve" width="11811px" height="9449px" version="1.1" style="shape-rendering:geometricPrecision; text-rendering:geometricPrecision; image-rendering:optimizeQuality; fill-rule:evenodd; clip-rule:evenodd"
viewBox="0 0 11811 9448.8"
 xmlns:xlink="http://www.w3.org/1999/xlink"
 xmlns:xodm="http://www.corel.com/coreldraw/odm/2003">
 <defs>
  <style type="text/css">
   <![CDATA[
    .fil3 {fill:#FEFEFE}
    .fil1 {fill:#3D8039}
    .fil5 {fill:#769769}
    .fil0 {fill:#9F1C22}
    .fil4 {fill:#B2BAAC}
    .fil2 {fill:white}
   ]]>
  </style>
 </defs>
 <g id="Camada_x0020_1">
  <metadata id="CorelCorpID_0Corel-Layer"/>
  <path class="fil0" d="M3443.31 4317.45c-9.41,10.47 -24.97,16.22 -39.85,22.1 -10.56,4.17 -24.93,13.87 -42.43,17.78 -13,2.91 -22.24,4.9 -31.02,11.15 4.02,13.67 19.45,46.06 28.03,79.51 4.34,16.9 25.46,76.05 24.55,88l5.56 10.11c7.03,19.21 25.56,74.01 25,87.22 5.43,4.97 6.19,12.96 8.74,19.93 3.08,8.43 4.27,12.18 7.02,22.46 9.51,35.46 16.84,44.74 28.04,88.99l43.54 137.4c5.44,15.51 8.11,29.33 13.31,45.7l12.86 34.45c12.43,10.08 2.62,-1.04 2.51,-1.12 0.35,14.15 0.39,15.24 4.74,26.13 17.63,44.2 22.89,65.58 39.42,116.03 6.35,19.39 12.97,27.55 11.62,49.68 -17.43,15.17 -49.08,8.27 -85.67,8.35l-186.51 0.04c-30.31,0.11 -70.19,6.35 -70,-26.15 -3.67,-1.65 -4.62,4.83 -2.78,-5.43 -0.51,-0.59 -1.48,-2.09 -1.6,-1.71 -0.12,0.37 -1.13,-1.39 -1.25,-1.94 -1.72,-7.53 -0.99,-1.87 -0.42,-7.93 -1.19,-13.37 -7.66,-29.61 -12.06,-42.73l-4.58 -16.46c-0.25,-0.84 -1.04,-3.15 -1.31,-3.98l-15.51 -45.57c-11.89,-36.66 -40.25,-113.24 -45.18,-144.24 -10.04,-34.4 -24.46,-67.66 -34.3,-103.71 -17.17,-62.87 -93.68,-278.5 -101.62,-317.3 -0.64,-0.6 -1.46,-2.44 -1.74,-1.97l-19.07 -54.7c-4.14,-14.48 -3.88,-15.34 -18.93,-17.55 -8.84,-1.3 -24.32,-3.23 -30.84,0.83 -8.55,7.86 -27.18,165.85 -30.39,193.31 -5.56,47.61 -15.99,96.71 -20.78,149.18 -0.93,10.21 -3.37,10.97 -5.16,19.32l-37.79 271.29c-9.22,41.96 -12.22,117.02 -25.67,144.83 -16.29,4.9 -285.27,5.07 -301.14,0.26 -8.22,-16.6 2.07,-51.68 4.54,-71.18l2.47 -18.9c0.23,-2.11 0.45,-5.01 0.68,-7.32l24.69 -151.35c6.9,-35.6 5.5,-47.6 10.51,-77.85 1.69,-10.16 0.19,-0.91 1.07,-6.56l3.84 -30.55c1.03,-9.59 2.18,-18.18 7.67,-25.77l16.12 -153.4c-11.65,1.94 -26.18,7.65 -38.76,10.4 -14.25,3.13 -22.63,7.92 -36.73,9.03 -10.44,8.9 -28.52,10.92 -42.27,14.42 -14.19,3.61 -28.22,7.22 -42.87,10.14 -15.8,3.14 -30.55,4.35 -46.95,7.07 -0.68,0.11 -1.37,0.26 -2.03,0.39 -42.25,8.25 -108.37,14.57 -148.32,13.62 -80.3,-1.89 -190.89,-29.54 -258.11,-67.33 -53.66,-30.16 -96.94,-68.39 -129.96,-115.28l-63.48 -125.14 -15.83 -51.02c-2.08,-6.69 -1.1,-3.21 -3.17,-10.09 -17.44,-57.87 -21.47,-98.76 -31.05,-159.95 -4.79,-30.65 -6.46,-124.91 -6.29,-156.45 0.18,-31.02 4.92,-120.69 10.17,-151.89 3.19,-19.01 1.51,-40.28 8.92,-48.72 -0.93,-16.92 8.51,-53.3 10.84,-74 11.99,-106.23 62.19,-316.61 106.35,-411.28l25.01 -57.5c-0.27,-7.12 -2.48,-6.71 3.53,-4.82 -1.98,-9.94 -1.74,-4.39 2.88,-4.88 -2.27,-10.58 -1.8,-4.76 2.72,-5.28 -2.12,-10.59 -1.72,-4.8 2.58,-5.52 -2.23,-10.66 -1.58,-4.68 2.53,-5.68 -2.72,-10.11 -1.96,-4.4 2.3,-5.66 -2.36,-10.39 -1.48,-4.17 2.82,-5.03 -1.53,-9.37 -1.64,-4.19 3.1,-4.77 -1.86,-9.91 -1.88,-4.66 2.9,-5.01 -1.53,-9.88 -1.84,-4.91 2.68,-5.27 -1.64,-10.01 -1.9,-4.98 2.61,-5.34 -2,-10.53 -1.92,-5.06 2.5,-5.54 -2.27,-11 -1.78,-4.99 2.55,-5.56 -0.33,-5.4 -1.06,-2.92 0.93,-7.1 2.56,-5.38 0.27,-1.22 4.86,-2.99 0.79,-9.16 -1.53,-2.31 2.62,-8.29 3.95,-5.69 -1.55,-1.02 4.98,-3.14 -1.75,-9.86 -1.52,-4.42 2.74,-5.03 0.15,-19.34 74.82,-113.55 88.83,-132.22 12.3,-16.37 28.36,-30.91 43.7,-44.52 4.36,-3.86 6.76,-6.7 11.15,-10.22 4.3,-3.44 8.65,-5.8 12.34,-9.07 36.92,-32.73 29.89,-32.06 73.36,-59.67 9.05,-5.75 17.26,-10.53 26.4,-16.07 56.7,-34.39 123.31,-64.03 190.77,-70.19 13.08,-1.2 25.57,-5.68 37.91,-7.23 11.67,-1.48 29.73,-0.08 42.2,-0.04 33.1,0.1 39.1,-16.13 75.49,-4.1 33.56,11.1 43.53,-0.35 78.57,3.74l78.65 9.98 98.18 33.66c11.22,4.89 16.37,10.1 26.6,16.41 17.43,10.74 38.42,22.3 48.58,36.94 9.71,0.99 10.41,3.15 16.67,9.97 6.13,6.68 8.67,7.62 9.85,16.69 5.5,-1.65 4.24,-2.26 2.26,3.15l8.96 7.19c2.83,3.79 3.63,6.31 5.97,10.35 9.96,17.16 29.66,42.6 26.66,60.69 3.39,2.36 2.01,0.16 5.25,5.62 0.23,0.38 2.81,7.83 2.84,7.94 1.72,8.27 1.45,10.85 0.15,18.03 2.52,2.78 1.26,-0.67 3.4,5.89 0.98,3 0.63,1.35 1.03,4.65 0.99,8.19 0.23,4.81 -0.99,10.06 3.99,5.5 4.84,14.97 5.41,22.2 0.69,8.77 0.83,17.75 0.85,26.55l-4.69 49.41c2.14,11.6 -0.9,35.52 -3.8,45.04 -24.02,9.08 -108.21,4.09 -142.24,4.16 -28.05,0.06 -122.81,3.75 -141.22,-2.65 -9.52,-35.48 10.9,-120.5 -24.17,-191.48 -12.37,-25.04 -30.64,-42.35 -53.93,-55.75 -11.77,-6.78 -23.87,-11.35 -37.19,-16.39 -16.28,-6.16 -25.46,-5.44 -45.38,-7.94 -34.46,-4.33 -72.52,-1.46 -99.54,8.58 -25.18,9.36 -52.04,21.61 -71.61,35.37 -64.49,45.36 -147.58,186.3 -168.14,262.5 -7.94,29.4 -19.52,52.02 -27.18,81.86 -3.93,15.31 -9.01,27.37 -11.81,41.51 -3.57,17.96 -5.87,28.37 -10.54,42.82l-68.79 419.6c-1.4,20.16 -1.62,31.03 -4.44,49.26 -5.18,33.44 -4.24,65.3 -7.24,99.76 -9.65,110.61 -6.31,274.55 46.73,380.82 36.24,72.6 63.8,95.54 135.49,136.34 8,4.55 28.38,11.34 39.54,13.01 26.45,3.97 68.15,11.82 94.38,8.45 36.45,-4.68 108.24,-9.56 141.56,-20.53 27.11,-8.93 99.87,-29.97 119.17,-43.33 14.25,-9.86 14.09,-67.95 17.04,-90.41 6.84,-52.25 16.41,-143.55 25.2,-190.86l29.05 -185.6c9.18,-80.1 24.79,-159.61 35.45,-236.11 13.15,-94.45 53.44,-257.61 -22.35,-311.75 -22.01,-15.73 -68.92,-11.6 -83.29,-25.97 -16.91,-16.93 2.49,-64.92 25.5,-67.54 29.46,-3.36 77.68,-0.53 109.09,-0.54l322.4 -0.35c111.63,0.13 154.69,-9.45 261.57,10.42 14.97,2.79 32.62,5.35 45.68,7.64 31.38,5.5 76.34,18.78 105.96,30.06 95.48,36.34 169.99,92.23 218.01,184.65 25.56,49.19 39.9,106.41 38.4,178.15 -0.4,19.23 -4.2,32.15 -5.1,50.45 -0.91,18.49 -2.1,31.92 -4.63,49.44 -11.83,81.85 -18.81,101.32 -45.18,170.74 -10.37,27.28 -20.82,48.79 -34.19,72.57 -44.55,79.28 -38.54,59.8 -95.09,120.84 -60.07,64.85 -113.02,74.82 -125.75,87.18zm-2284.65 -1515.83c5.99,50.23 5.68,131.27 9.67,157.89 12.79,85.24 14.39,254 23.92,361.89 2.98,33.84 7.63,66.58 8.77,101.11 3.17,96.59 21.79,203.01 30.53,300.95 4.72,52.95 36.67,237.14 46.3,283.7 3.43,16.61 4.06,31.74 7.68,48.61 9.73,45.29 15.79,92.25 29.8,135.43l11.17 44.66c11.98,40.63 21.02,88.95 34.94,127.73 9.6,26.74 16.45,58.68 26.89,85.07 21.53,54.43 37.3,108.11 58.95,162.04l14.75 41.83c54.75,138.88 164.73,341.3 247.09,466.66l89.38 131.9c16.78,21.33 30.53,43.65 47.1,64.94 63.06,81.04 128.74,165.4 199.44,240.07 35.51,37.51 41.24,53.52 76.05,89.14l29.21 26.72c27.73,26.56 86.65,80.32 108.69,112.34 14.75,21.44 40.01,32.17 58.25,51.14 17.29,17.98 37.52,39.84 56.02,55.94l30.78 25.11c10.45,9.91 15.81,17.75 25.48,27.82 29.45,30.66 96.96,77.92 119.24,101.91 44.39,47.8 76.87,58.54 90.54,77.22 28.07,38.38 55.84,47.3 88.52,76.79 6.23,5.61 10,7.9 16.06,13.25 7.56,6.68 5.82,7.27 14.81,12.37 9.25,5.25 0.56,-0.71 8.09,4.93 21.19,15.84 30.11,-1.61 43.6,-14.83 16.63,-16.3 73.33,-49.9 104.52,-84.55l61.26 -50.89c25.33,-18.9 76.45,-75.66 100.9,-93.45 11.63,-8.47 16.93,-17.85 31.14,-24.75 22.2,-10.79 9.74,-15.01 25.09,-28.24 18.3,-15.78 12.26,-20.75 43.69,-38.59 26.05,-14.78 22.87,-34.61 85.35,-80.17 21.47,-15.65 31.02,-41.55 51.3,-57.9 7.16,-5.77 7.73,-8.92 14.38,-14.93 6.55,-5.92 7.66,-6.68 13.73,-12.99l26.69 -26.57c6.72,-6.9 2.85,-4.03 6.09,-10.05 10.96,-20.31 59.81,-54.77 74.28,-77.53 8.16,-12.82 9.16,-22.66 20.76,-32.43l15.27 -14.08c5.05,-5.39 8.25,-8.04 13.4,-13.24 17.66,-17.82 13.92,-20.73 23.88,-32.1l123.37 -153.92c6.62,-9.56 15.33,-20.16 22.94,-30.18 31.7,-41.73 58.32,-83.7 90.28,-128.15l127.81 -205.43c66.22,-107.58 132.36,-252.07 181.3,-369.68l46.38 -121.92c16.25,-41.87 57.54,-170.82 66.25,-208.25l24.3 -87.8c17.28,-59.3 26.74,-116.4 41.62,-177.39l32.04 -188.45c4.47,-30.87 8.17,-64.3 12.87,-96.07l25.09 -195.78c6.96,-68.26 12.14,-133.76 19.83,-201.09 3.99,-34.89 4.54,-65.5 7.97,-101.84 13.1,-138.37 14.97,-275.16 29.53,-413.62 1.55,-14.77 4.39,-39.58 4.05,-53.22 -0.35,-13.34 -1.5,-12.73 -9.7,-18.66 -23.5,-17.03 -69.88,-30.75 -97.48,-41.19 -26.5,-10.01 -51.05,-23.33 -76.31,-32.87 -14.69,-5.55 -26.09,-11.9 -39.81,-16.14l-118.24 -43.98c-68.4,-30.84 -211.17,-68.43 -295.07,-94.43 -27.56,-8.54 -57.28,-13.89 -85.67,-23.65 -13.37,-4.59 -28.59,-9.67 -42.08,-13.55 -26.67,-7.66 -60.59,-15.9 -88.47,-20.87l-94.52 -17.86c-14.62,-3.64 -28.28,-7.96 -44.01,-11.55l-118.82 -20.31c-41.22,-2.22 -65.33,-16.43 -114.61,-20.13l-102.25 -10.15c-18.3,-2.33 -36.53,-0.85 -54.66,-2.27 -43.51,-3.42 -234.01,-12.47 -263.34,-8.67 -34.15,4.42 -67.58,4.26 -104.69,4.13 -120.27,-0.42 -190.77,11.62 -306.29,25.37 -95.2,11.32 -186.81,34.83 -279.76,53.18 -27.35,5.4 -64.15,12.67 -88.28,20.62l-85.38 23.98c-63.85,16.14 -207.68,59.75 -253.39,76.92 -53.99,20.29 -108.42,37.57 -162.43,58.74l-236.63 93.59c-36.04,14.22 -61.45,14.91 -57.19,50.67z"/>
  <path class="fil1" d="M991.95 2654.39c20.1,-16.96 65.39,-34.24 93.69,-46.6 47.08,-20.54 248.62,-95.9 301.93,-114.27l207.25 -69.97c70.01,-25.22 144.99,-37.95 215.24,-61.73 61.96,-20.97 158.36,-42.96 225.34,-55.09 159.72,-28.94 320.27,-65.18 483.36,-69.87 198.4,-5.69 563.39,-13.19 749.15,28.48 33.89,7.6 71.22,10.03 106.78,16.48l152.83 28.68c16.16,3.28 34.31,7.45 50.83,10.82l284.38 76.76c64.5,20.11 120.45,37.9 184.06,58.99 111.92,37.12 246.05,86.32 353.43,131.06 31.38,13.07 58.44,23.38 86.29,36.08 50.5,23.03 65.89,20.21 64.23,57.44 -3.45,77.13 -12.42,150.04 -15.61,226.52 -6.32,151.67 -26.26,299.87 -34.21,450.29l-21.94 221.07c-42.26,287.48 -75.48,534.15 -162.53,809.04 -29.63,93.56 -53.6,187.31 -88.97,276.54 -43.2,109.01 -134.09,314.34 -193.02,411.6 -46.4,76.57 -88.6,153.47 -137.93,226.81 -16.64,24.73 -30.33,49.38 -47.26,72.88 -30.01,41.67 -71.2,103.16 -101.18,141.35 -9.48,12.08 -16.27,23.29 -25.87,35.53l-54.06 68.43c-15.93,22.27 -42,43.63 -55.95,66.57 -8.34,13.72 -16.16,24.69 -25.86,35.35 -10.24,11.25 -20.32,19.25 -31.18,30.12 -10.37,10.39 -15.26,23.13 -23.85,34.79 -16.15,21.9 -44.56,39.75 -60.76,61.76 -29.33,39.86 -59.45,59.37 -87.27,94 -11.68,14.54 -72.86,79.29 -88.93,92.16 -32.5,26.06 -58.51,68.75 -94.19,89.39 -19,11 -4.14,7.56 -27.16,31.75 -6.4,6.72 -8.53,9.93 -17.14,15 -6.94,4.1 -11.41,6.1 -18.36,10.97 -28.98,20.29 -53.65,56.52 -93.14,87.71l-33.35 28.07c-23.57,25.98 -53.17,48.14 -80.81,70.99 -17.09,14.14 -29.06,29.72 -47.07,43.47 -22.92,17.48 -47.45,34.17 -67.78,54.84 -6.99,7.11 -21.88,25.41 -30.15,27.39 -20.76,-2.64 -35.76,-27.43 -50.96,-38.67 -15.92,-11.77 -33.53,-25.74 -51.12,-36.92 -27.07,-17.21 -41.94,-42.78 -67.8,-65.11l-50.08 -37.97c-11.89,-9.44 -12.08,-13.18 -21.08,-21.41l-72.56 -60.87c-7.13,-6.3 -14.82,-13.82 -21.67,-20.78l-47.77 -40.65c-6.75,-4.88 -7.21,-5 -13.17,-10.32 -17.25,-15.45 -17.24,-19.64 -30.84,-33.1 -29.9,-29.59 -63.78,-52.34 -90.34,-85.44l-23.47 -21.97c-8.9,-7.57 -16.49,-10.15 -24.78,-17.79 -14.82,-13.67 -29.51,-29.54 -43.66,-44.29 -12.02,-12.53 -9.77,-10.83 -18.53,-26.45 -6.14,-10.95 -13.84,-12.77 -23.33,-19.58 -35.17,-25.23 -58.03,-57.87 -87.37,-88.52 -33.22,-34.72 -58.52,-68.24 -84.09,-94.4 -38.14,-39.02 -86.01,-99.76 -121.03,-142.79 -65.9,-81 -129.27,-164.37 -188.7,-251.08 -6.02,-8.79 -11.63,-17.32 -18.21,-27.21 -6.35,-9.54 -10.33,-15.94 -16.66,-26.24 -10.2,-16.62 -23.21,-33.01 -35.36,-52.17 -57.62,-90.81 -112.22,-184.81 -160.64,-281.95 -53.72,-107.8 -89.19,-191.8 -135.22,-304.17 -17.17,-41.94 -101.61,-295.78 -107.3,-331.12 -7.45,-46.25 -24.46,-94.99 -34.33,-141.82 -4.94,-23.42 -9.94,-51.12 -15.27,-73.68 -35.2,-148.97 -51.95,-302.03 -72.26,-454.6 -14.27,-107.26 -17.83,-213.6 -28.1,-323.48 -4.98,-53.32 -5.45,-114.13 -9.93,-167.01 -4.61,-54.55 -6.79,-111.01 -9.42,-166.42 -5.22,-110.06 -19.88,-221.78 -18.21,-333.67zm1804.29 4103.91c6.43,-9.03 20.49,-18.72 29.53,-26.15l18.3 -18.95c10.26,-12.52 20.93,-17.63 30.64,-27.98 9.31,-9.93 12.58,-4.44 23.85,-13.5 4.63,-3.72 4.8,-5.07 9.58,-8.89 4,-3.2 6.34,-4.43 10.49,-8.36 14.13,-13.38 17.13,-21.67 34.09,-32.41l20.25 -19.96c5.3,-7.37 2.36,-9.5 13.09,-12.83 10.56,-3.29 4.01,1.26 14.18,-4.99l17.42 -14.63c14.2,-10.85 12.27,-10.12 22.03,-23.22 15.37,-20.61 43.29,-29.47 58.04,-54.32 7.79,-13.12 9.13,-11.86 23.7,-10.93 2.21,-8.39 7.75,-11.45 12.91,-15.73 6.88,-5.72 3.14,-11.78 10.87,-18.37l34.58 -27.18c9.37,-10.44 16.06,-6.12 13.84,-17.88 -1.53,-8.1 0.44,-4.32 -4.08,-4.18 3.47,-0.85 11.15,-3.37 13.1,-4.26 21.16,-9.63 -3.21,-7.26 21.55,-20.36 0.83,-0.43 2.2,-1.18 2.96,-1.75 2.59,-1.97 3.66,-3.92 5.07,-5.44 9.55,-10.25 23.47,-14.52 33.8,-27.77 4.82,-6.19 4.6,-6.12 5.41,-15.55 11.82,-0.58 14.29,-1.94 22.07,-7.52l11.85 -11.84c18.23,-22.21 15.53,-23.78 40.57,-42.14 9.26,-6.79 6.91,-8.2 13.89,-15.42 9.65,-9.98 28.04,-16.54 18.6,-33.7 8.09,-1.87 8.51,0.94 13.96,-5.67l19.8 -14.95c6.46,-5.48 -1.21,1.36 3.86,-4.35l34.91 -36.97c0.31,-0.4 0.77,-1.04 1.1,-1.41l14.77 -11.79c1.38,-1.5 3.88,-4.88 5.83,-7.71l48.99 -52.07c10.82,-11.55 23.36,-16.09 28.32,-31.27l30.82 -34.39c21.48,-13.34 29.71,-39.3 51.57,-52.25 11.45,-6.78 6.62,-8.56 11.42,-17.79 5.39,-10.35 5.69,-2.77 12.84,-16.55 7.57,-14.56 1.07,-4.31 12.76,-14.75l21.05 -20.88c0.48,-0.56 3.54,-4.41 3.58,-4.46 6.88,-7.79 12.58,-9.07 16.42,-19.75 5.05,-14.04 14.73,-20.87 25.37,-31.88l58.04 -72.01c17.75,-24.81 39.25,-48.34 56.64,-73.92 13,-19.13 31.43,-36.23 42.31,-56.09 4.44,-8.09 1.96,-3.4 6.54,-9.78 4.9,-6.84 6.6,-10.64 11.78,-17.6l17.17 -22.72c3.55,-5.09 3.94,-4.69 7.12,-8.89 5.38,-7.1 -0.5,1 4.93,-8.1l29.88 -42.39c5.52,-7.34 6.43,-12.01 10.91,-18.42l46.17 -68.33c4.62,-6.33 6.61,-12.43 10.34,-18.78l33.43 -51.98c26.97,-40.57 52.45,-84.36 74.66,-127.56l29.47 -51.18c5.72,-5.61 -3.93,0.54 6.19,-4.48 6.35,-3.37 22.8,-33.48 28.07,-43.88l134.46 -297.18c4.77,-11.89 8.85,-23.78 14.62,-36.01 5.71,-12.13 10.23,-23.49 15.11,-35.52 29.63,-73.08 55.79,-148.65 80.09,-223.64 8.34,-25.73 18.97,-49.09 25.38,-75.87 3.37,-14.09 7.35,-25.43 11.66,-38.97l11.32 -39.3c2.51,-7.73 3.25,-9.94 5.41,-18.58 2.4,-9.63 4.25,-13.59 6.33,-20.3 4.05,-13.08 7.04,-26.52 10.09,-40.54 11.61,-53.32 29.6,-108.48 40.41,-162.08 6,-29.71 12.35,-53.75 18.25,-83.01l54.59 -299.77c2,-14.51 3.39,-29.67 5.63,-45l12.13 -89.12c8.35,-41.78 8.87,-90.92 15.2,-136.67 10.77,-77.91 16.98,-151.15 25.06,-228.06 1.89,-17.96 1.63,-29 3.85,-46.78 5.84,-46.79 4.37,-93.45 11.44,-140.43 4.91,-32.57 12.51,-198.52 14.45,-238.67l23.98 -330.39 -30 -15.3c-0.77,-0.33 -3.04,-1.19 -3.82,-1.5l-17.53 -6.46c-10.41,-3.76 -16.33,-7.58 -25.86,-11.44 -27.43,-11.1 -56.1,-20.38 -83.53,-33.7l-54.53 -22.74c-5.43,-1.61 -8.31,-2.94 -13.53,-5.13 -2.42,-1.01 -1.89,-0.81 -5.75,-2.24l-104.02 -39.86c-5.34,-2.94 -6.15,-3.53 -12.76,-5.89 -55.55,-19.84 -111.42,-43.91 -168.24,-60.9l-58.24 -19.02c-9.29,-3.54 -18.49,-7.04 -29.33,-10.65l-417.6 -120.61c-71.93,-17.79 -148.25,-27.71 -220.48,-45.96 -54.65,-13.81 -173.46,-35.02 -228.6,-40.51 -15.2,-1.51 -20.39,-0.41 -34,-3.3l-141.47 -13.07c-13.76,-0.32 -24.71,-3.27 -35.3,-4.67 -12.01,-1.58 -24.33,0.27 -36.25,-1.05 -8.9,-0.98 -27.33,-3.09 -35.75,-4.22 -21.49,-2.88 -53.7,-1.07 -74.43,-3.04 -5.26,-0.5 -11.36,0.33 -15.79,0.43 -27.97,0.62 -66.38,-3.61 -90.2,-3.47 -59.75,0.34 -129.35,-0.96 -184.42,4.41 -18.26,1.78 -50.46,0.83 -74.16,0.86l-104.85 9.71c-11.77,2.25 -23.84,0.1 -35.88,1.43 -20.36,2.24 -48.81,6.52 -69.71,7.55 -79.38,3.9 -158.3,18.94 -234.85,31.59 -13.96,2.31 -17.82,4.51 -33.06,6.91 -47.08,7.42 -97.56,19.66 -143.83,29.36 -6.4,1.35 -8.63,2.55 -14.73,3.92 -41.06,9.28 -85.94,17.29 -124.92,29.62l-93.93 23.3c-19.6,5.51 -40.05,10.46 -58.38,16.23 -35.9,11.3 -116.12,29.61 -147.92,43.92 -15.81,7.12 -34.26,9.63 -50.79,15.81l-93.38 31.86c-48.2,15.89 -110.11,33 -156.5,53.98l-13.15 5.51c-6.08,2.56 -5.65,2.8 -13.33,5.32l-69.27 26.65c-31.54,13.39 -67.42,23.28 -97.08,38.8 -25.52,13.35 -54.97,21.76 -80.81,33.77l-76.4 30.17c-8.19,3.54 -45.86,16.08 -46.24,25.24l11.26 224.84c-0.33,29.92 4.78,61.31 7.62,88.3 1.63,15.48 -0.21,34.42 0.27,50.35l5.38 90.54c-0.14,19.33 2.84,26.6 2.76,45.2 -0.19,43.85 4.74,98.21 8.08,141.13l8.63 89.95c3.57,27.12 4.53,58.75 7.63,88.29 5.94,56.6 9.12,120.57 16.32,178.19l57.71 432.54c1.41,10.8 1.81,10.08 3.92,20.06l17.73 102.17c2.49,27.89 12.27,53.39 17.35,81.23l16.88 79.04c13.54,65.59 34.39,130.08 50.61,194.52 3.38,13.4 5.21,25.04 8.96,39 13.23,49.34 26.84,103.33 45.78,151.39l12.18 35.78c5.25,11.68 8.53,22.92 12.91,35.04 10.68,29.57 24.78,58.4 34,88.57 2.84,9.28 4.36,10.67 8.1,18.55 5.42,11.46 8.3,22.61 13.44,34.51l158.85 331.41 176.7 292.24c0.3,0.49 0.73,1.14 1.05,1.62l45.54 66.36c3.68,4.99 6.17,9.07 9.87,14.11l46.95 64.95c2.31,2.83 3.61,4.7 5.7,7.62l41.03 54.89c13.86,19.33 27.27,37.58 42.25,56.34 7.43,9.3 13.9,17.28 21.34,26.62l111.49 133.64c8.13,11.07 14.52,16.06 22.08,25.87l92.25 102.26c0.39,0.38 0.96,0.93 1.35,1.31 6.37,6.3 5.5,6.17 11.1,12.89l76.78 80.42c0.38,0.39 0.93,0.96 1.32,1.35 0.38,0.38 0.95,0.93 1.34,1.32l20.72 21.9c18.93,20.36 33.64,38.85 55.41,56.5 5.14,4.17 7.94,6.68 13.37,10.61 20.79,15.03 30.93,32.11 47.69,50.89 13.51,15.14 30.95,25.78 45.99,39.27l117.94 113.87c6.51,7.2 3.02,4.81 11.79,12.2l287.46 250.75c5.15,4.4 7.98,6.83 12.81,11.17l40.8 33.81c23.86,17.82 43.78,40.04 68.84,56.38l5.19 2.8c11.74,3.79 27.24,0.92 39.42,0.92z"/>
  <path class="fil1" d="M6518.08 3163.99c0,19.72 17.72,30.64 27.04,42.22 10.45,12.96 19.3,27.14 34.24,35.04 -8.77,37.63 -23.25,71.7 -36.54,107.34l-189.95 580.07c-15.29,41.29 -28.24,86.42 -38.9,128.96l-65.08 217.35c-1.25,3.63 -1.88,4.89 -2.21,5.78l-49.8 168.69c-3.76,15.02 -6.16,22.82 -10.32,37.64l-32 111.88c-3.52,12.37 -9.25,27.58 -11.36,36.59l-21.04 77.55c-3.48,13.93 -8.12,26.02 -11.01,36.95l-51.73 188.06c-0.22,0.63 -0.52,1.3 -0.73,1.94 -12.37,37.26 -19.9,75.93 -29.96,113.92l-40.23 151.61c-15.04,49.47 -28.36,133.33 -40.27,178.21 -1.72,6.48 -2.9,11.72 -4.62,19.36l-53.63 223.47c-2.77,9.02 -1.09,0.18 -3.37,9.96 -12.97,-9.51 -12.05,-56.46 -14.77,-73.17 -1.65,-10.15 -3.46,-15.88 -3.9,-25.4l-18.6 -215.87c0.03,-13.15 -2.18,-40.7 -4.24,-54.38 -4.27,-28.37 -3.37,-56.58 -3.68,-84.24 -0.15,-13.71 -2.13,-14.7 -2.72,-26.59 -1.02,-20.54 -2,-33.84 -2.63,-55.99 -0.38,-13.19 -2.47,-13.3 -2.83,-26.47 -0.27,-9.78 0.7,-19 -0.59,-28.73 -0.73,-5.57 -3.66,-18.75 -4.3,-25 -0.98,-9.6 0.22,-18.52 -1.09,-28.23 -1.72,-12.79 -4.67,-39.02 -4.69,-53.92l-2.68 -55.94c-0.23,-19.14 -1.52,-39.65 -1.49,-54.05 0.02,-12.13 -0.21,-37.94 -2.61,-53.76 -5.62,-37.15 3.14,-77.79 -2.21,-115.02 -7.69,-53.48 -2.23,-113.48 -10.05,-165.81l-7.53 -168.32c0.41,-80.15 -2.65,-152.05 -2.65,-231.82 0.01,-39.99 -2.77,-72.85 -2.6,-114.63 0.08,-19.92 -2.75,-33.33 -2.73,-55.89l0 -319.73c0,-95.53 5.39,-183.19 5.33,-277.1 -0.01,-26.11 2.77,-41.77 2.68,-66.61 -0.08,-20.73 -1.81,-52.03 0.38,-71.56 5.34,-47.68 2.22,-93.86 9.52,-131.69 8.34,-43.23 10.88,-98.46 -21.72,-126 -15.84,-13.38 -30.9,-26.25 -49.46,-35.8 -34.03,-17.51 -59.35,-33.14 -98.33,-42.88 -7.32,-1.83 -8.51,-2.87 -14.41,-4.24 -40.19,-9.38 -102.93,-17.54 -139.77,-2.86 -12.43,4.95 -11.31,5.9 -19.96,14.67 -29.61,30.01 -28.9,63.2 -37.75,103.46 -2.39,10.85 -0.96,20.5 -2.66,31.99 -5.78,39 -4.36,174.01 -4.18,208.97 0.12,23.75 -2.58,40.79 -2.72,66.63 -0.13,22.9 2.3,25.85 0.92,48.49 -0.46,7.48 0.89,7.63 1.58,15.5 2.87,33.13 0.27,70.26 0.14,103.89 -0.13,30.83 6.82,90.36 6.2,132.77l1.95 82.89c1.16,12.56 1.22,4.17 3.97,14.69 9.77,37.36 -0.63,98.03 4.65,136.55l1.94 78c0,38.08 6.42,76.56 7.46,112.16 0.47,15.85 -2.68,16.4 0.13,42.78 0.96,9.02 0.18,15.94 1.53,25.12 4.42,30.14 3.73,58.69 4.1,91.82l18.36 274.72c3.58,31.82 -0.44,62.3 4.2,94.39 2.34,16.16 0.33,30.15 1.66,46.29 1.07,12.97 3.68,32.66 4.94,45.68 2.93,30.17 3.21,58.83 5.72,90.21 2.37,29.59 2.78,61.9 5.33,93.25 2.3,28.28 4.83,60.66 5.09,90.83l16.48 202.01c0.89,8.26 2.22,9.8 2.31,21.66 0.15,18.52 2.07,28.35 2.55,48.08 1.26,51.27 11.22,142.46 10.75,186.42l9.09 134.78c6.86,46.18 1.95,94.54 8.42,138.13l3.76 94.83c0.37,15.29 4.62,28 5.37,42.58 0.81,15.72 -1.2,31.47 1.05,46.92 2.07,14.24 4.69,29.79 6.24,41.72 2.07,16.04 -0.62,32.71 1.81,48.8 7.96,52.65 -1.2,160.97 9.37,235.76 2.13,15.04 3.94,27.85 7.8,40.16 6.88,21.93 17.59,52.72 29.24,69.35 21.06,30.08 41.9,61.11 67.27,87.26l89.25 70.62c6.81,4.35 8.55,4.17 15.49,8.49 43.22,26.92 90.81,48.49 142.06,55.11 44.18,5.7 63.7,15.9 112.69,-6.07 15.8,-7.08 31.37,-17.09 44.94,-27 20.77,-15.17 16.41,-21.96 16.32,-55.62 -0.14,-45.73 5.12,-169.9 9.93,-205.88 1.52,-11.32 -0.13,-22.45 1.05,-33.59 1.21,-11.31 4.45,-18.11 4.99,-32.31l58.25 -368.07c1.64,-11.06 2.03,-19.25 4.17,-30.46 1.05,-5.45 2.89,-11.66 3.46,-15.19 1.15,-7.15 0.82,-9.51 2.45,-16.2 18.84,-76.93 34.27,-156.9 50.89,-234.21 13.78,-64.09 26.77,-125.58 44.66,-187.15l17.83 -72.75c2.09,-8.4 4.82,-21.35 7.2,-30.11 2.69,-9.89 3.25,-17.98 6.59,-28.04l25.31 -99.92c8.81,-32.71 15.45,-69.21 26.6,-101.29 10.84,-31.17 17.21,-67.33 26.34,-98.89l131.01 -460.5c2.82,-11.91 5.49,-15.06 8.03,-26.6 2.73,-12.33 5.14,-17.67 8.54,-28.76l91.55 -302.8c2.98,-10.12 6.47,-17.32 9.36,-27.93 2.5,-9.14 4.99,-17.65 8.04,-26.6l62.52 -190.6c17.59,-54.28 37.62,-106.33 54.32,-161.5l139.86 -398.35c3.57,-11.57 6.19,-18.38 9.37,-27.94l68.8 -181.66c35.21,-83.55 60.24,-107.59 -60.02,-164.84 -17.14,-8.16 -54,-13.81 -74.81,-15.81 -9.8,-0.94 -14.14,-2.81 -25.41,-1.09 -28.95,4.43 -55.02,30.08 -77.34,48.08 -0.43,0.34 -1.04,0.85 -1.47,1.2l-2.87 2.45c-9.41,8.08 -17.08,13.06 -24.89,23.07l-175.58 240.07c-4.2,8.44 -17.75,34.64 -17.75,43.54zm2904.23 1377.5c17.49,20.13 67.44,52.05 89.23,62.65 4.17,2.02 7.21,2.72 11.46,4.52l55.74 21.53c7.68,2.88 13.93,5.51 21.72,7.6 4.91,1.32 8.8,1.19 13.74,2.42 9.31,2.34 8.65,-2.6 1.53,30.76l-41.27 238.5c-4.43,16.15 -6.82,35.29 -10.38,50.9 -35.13,154.14 -68.72,283.76 -119.09,435.11 -38.57,115.86 -87.86,239.36 -153.37,342.21l-37.98 52.61c-5.5,6.46 -9.17,11.31 -14.52,17.46 -19.13,21.96 -57.47,44.63 -88.58,44.63 -79.55,0 -110.76,-91.86 -120.65,-156.45 -1.99,-13.06 -5.49,-32.04 -7.91,-47.27 -1.35,-8.47 -1.01,-35.19 -4.32,-47.08 -9.63,-34.67 -5.67,-161.82 -5.67,-204.81 0,-30.06 9.44,-42.54 9.27,-66.67 -0.32,-46.15 2.46,-32.35 4.06,-63.87 1.05,-20.54 2.08,-37.56 2.66,-55.97 0.45,-14.47 3.43,-37.48 4.93,-51.02 2.75,-24.7 -1.66,-10.8 4.98,-53.64l87.03 -488.48 62.21 -225.55c4.82,-15.45 8.13,-30.04 13.32,-45.29l9.39 -30.59c14.44,-46.91 34.54,-91.48 55.76,-136.08 26.32,-55.31 33.99,-63.7 62.92,-110.27l23.77 -34.84c9.7,-10.95 15.48,-19.76 26.99,-28.96 33.52,-26.82 84.48,-71.78 136.4,-55.68 35.24,10.93 50.51,84.03 50.51,104.03 0,67.67 2.7,70.62 -6.9,136.99 -4.56,31.54 -8.55,54.66 -17.43,86.48 -2.34,8.41 -3.9,18.22 -6.72,27.92 -16.24,56 -32.91,93.16 -62.07,145.75l-24.97 44.31c-7.52,12.73 -22.62,32.52 -25.79,46.14zm1549.91 -1715.12c-3.56,-3.75 -6.08,-7.02 -10.29,-11.1 -5.34,-5.19 -6.57,-4.74 -10.93,-9.91 -8.46,-7.25 -13.55,-11.55 -22.16,-18.08 -7.61,-5.78 -16.88,-11.13 -21.35,-16.13 -25.35,-19.1 -46.19,-26.97 -74.28,-42.77 -26.02,-14.64 -59.01,-22.18 -94.68,-21.42 -46.06,0.97 -60.77,5.3 -67.17,48.67 -2.68,18.18 -7.85,32.03 -10.29,48.37 -11.26,75.25 -30.53,159.33 -42.84,242.76l-48.48 297.42c-3.59,32.4 -11.88,66.09 -16.43,98.6 -9.36,66.86 -19.68,132.74 -29.09,199.75l-29.54 199.4c-9.28,50.19 -13.35,105.73 -21.43,151.74 -2.62,14.93 -3.78,35.48 -8.07,48.55 -0.36,25.14 -13.18,126.12 -19,143.23 0.54,28.19 -16.4,130.13 -21.13,165.37 -7.45,55.41 -12.91,110.23 -19.68,163.88 -25.83,204.56 -56.13,461.9 -72.94,667.44 -2.4,29.39 -7.48,53.7 -11.01,82.91 -2.93,24.25 -7.68,53.04 -10.74,79.29 -4.68,40.2 -10.37,127.09 -24.87,158.89 -0.44,19.78 -11.3,55.3 -18.2,70.15l-12.83 45.22 -8.81 18.85c-1.25,9.38 -6.13,18.47 -10.31,24.51 -5.58,16.21 -38.54,69.2 -47.17,80.02l-37.42 34.56 -43.16 28.98c-38.44,16.86 -85.44,23.46 -132.73,11.05 -24.81,-6.5 -34.71,-14.52 -49.11,-28.3 -8.86,-8.48 -27.48,-29.38 -33.25,-44.24 -8.31,-9.48 -16.55,-29.44 -17.59,-45.87 -13.85,-14.4 -22.69,-118.64 -24.65,-149.5 -4.4,-69.18 2.37,-252.12 16.22,-330.88 3.44,-19.6 16.55,-143.08 22.61,-149.81 -2.1,-25.32 7.18,-57.43 11.81,-82.34 4.01,-21.53 2.96,-60.64 14.25,-76.66 -0.17,-14.62 7.6,-54.67 12.71,-64.47l5.48 -26.18c0.19,-12.99 8.85,-59.99 13.31,-68.87 0.38,-12.65 3.16,-28.88 8.03,-37.84 0.28,-15.01 6.63,-51.26 13.76,-60.75 -0.45,-14.4 5.5,-35.33 9.11,-48.56l3.79 -8.04c0,-11.35 1.3,-13.81 5.09,-21.52 0.77,-15.67 29.68,-136.02 35,-143.36 -0.13,-17.57 49.82,-208.28 58.55,-239.65 10.22,-36.76 17.75,-49.27 -4.19,-78.27 -8.55,-11.3 -14.9,-15.59 -26.37,-24.09 -41.78,-30.98 -58.63,-25.04 -114.7,-34.45 -49.82,-8.37 -3.08,-33.75 -41.87,-155.99 -6.31,-12.9 -13.47,-27.83 -20.7,-40.24 -5.22,-8.97 -19.61,-29.67 -22.12,-36.46 -10.41,-14.76 -34.8,-41.29 -48.6,-52.46 -9.91,-8.02 -18.61,-13.32 -29.02,-21.53 -8.89,-7.01 -19.55,-15.92 -29.44,-21.23l-4.76 -3.13c-39.98,-20.82 -87.44,-39.37 -139.58,-47.41 -39.72,-6.12 -140.13,-3.91 -183.87,-0.96 -10.35,4.42 -15.33,3.43 -27.12,5.27 -7.97,1.24 -17.32,4.3 -25.27,6.5 -15.06,4.16 -35.33,13.21 -49.32,14.49 -2.81,2.6 -39.86,19.84 -45.43,21.42 -5.18,4.49 -18.66,11.93 -26.07,16.59 -9.88,6.21 -15.46,10.7 -24.23,15.63 -6.14,7.02 -16.66,13.06 -25.84,22.13 -12.44,11.97 -32.05,21.89 -44.56,35.21 -6.97,7.41 -12.44,12.87 -19.85,20.16 -49.16,48.33 -54.75,58.77 -93.14,104.05l-53.17 71.95c-24.93,35.81 -31.16,52.77 -47.38,78.06 -7.44,11.09 -12.7,24.43 -18.99,34.03l-80.77 172.39c-6.53,14.55 -16.3,44.48 -24.12,58 -4.03,18.19 -12.95,42.26 -19.81,60.53 -5.35,14.27 -14.21,47.81 -20.03,57.08 -1.5,12.83 -9.7,33.95 -13.69,47.81 -15.58,54.06 -23.3,94.92 -37.88,145.97 -8.17,28.6 -13.4,70.78 -19.84,103.11 -23.21,116.55 -44.66,327.85 -44.73,446.38 -0.03,36.95 3.15,79.27 -5.45,113.34 -23.66,3.45 -24.6,-11.24 -45.19,-12.36 -16.76,42.65 -29.99,119.91 -64.7,176.79l-54.6 83.75c-4.05,4.73 -3.56,1.38 -10.26,8.72l-54.19 65.76c-5.73,6.97 -8.87,11.37 -16.56,15.28 -6.08,8.94 -34.85,31.66 -44.88,40.54 -35,30.94 -34.77,30.26 -76.56,59.29l-32.33 23.65c-5.7,3.97 -12.24,6.45 -19.01,10.28 -31.55,17.84 -57.36,32.6 -90.12,45.27 -8.15,3.16 -16.04,4.24 -23.02,6.94 -7.04,2.72 -11.98,7.7 -17.41,10.11 -7.04,3.13 -14.95,3.34 -22.96,6.45 -31.1,12.05 -73.19,28.52 -115.02,9.93 -14.32,-6.37 -51.08,-33.36 -62.49,-49.2 -15.26,-21.19 -29.88,-49.87 -30.3,-78.83 -8.53,-14.73 -8.38,-196.34 0.34,-212.32 -0.82,-25.68 4.84,-63.15 7.31,-89.13 4.55,-48 21.37,-216.75 30.14,-255.12 2.92,-12.76 3.83,-28.04 5.92,-42.22 7.71,-52.24 43.24,-271.87 49.47,-283.62 0.22,-13.22 7.53,-57.27 13.73,-65.63 -1.03,-21.3 42.17,-214.77 46.33,-236.44 2.74,-14.29 5.39,-26.54 8.17,-39.94 4.76,-22.96 3.89,-37.88 10.57,-30.69l1.35 -1.25c-5.74,-10.31 -3.09,0.67 -1.45,-13.2l7.97 -37.49c1.84,-11.4 7.6,-40.85 12.32,-48.1 -0.54,-15.12 5.78,-35.37 9.16,-50.43l8.28 -37.63c3.2,-7.95 -1.04,-5.1 5.05,-3.74l1.3 -1.51c-5.97,-10.54 1.56,-29.8 4.53,-41.78 3.25,-13.15 5.67,-29.88 11.26,-39.93 0.81,-22.2 10.64,-52.27 15.46,-74.65 2.44,-11.34 5.06,-26.19 8.45,-36.65 5.3,-16.34 4.74,-20.35 21.04,-22.26l168.71 -28.09c56.64,-9.97 116.75,-11.17 172.78,-21.76 58.06,-10.97 122.05,-10.24 181.25,-17.11 46.12,-5.35 112.98,8 129.48,-15.74 13.04,-18.75 12.04,-32.07 18.44,-25.58l1.32 -1.39c-4.33,-7.92 -2.78,-28.8 -11.23,-46.15 -6.15,-12.63 -13.96,-22.19 -19.36,-33.87 -5.79,-8.44 -19.06,-26.16 -23.35,-37.62 -5.43,-6.29 -8.81,-7.8 -4.67,-15.8l-1.4 -1.06c-6.42,1.71 -5.23,5.31 -1.27,-4.72l-1.08 -0.6c-7.04,1.56 -1.7,4.32 -8.24,-6.6 -1.96,-3.27 -3.37,-6.65 -4.73,-10.69 -6.88,-6.52 -6.25,-11.31 -13,-19.72 -5.87,-7.32 -10.84,-9.24 -16.94,-14.72 -12.28,-7.47 -22.68,-13.84 -37.28,-18.97 -19.11,-6.71 -31.98,1.7 -45.01,-8.11l-7.43 -11.32c-3.74,-4.32 -10.08,-21.2 -13.37,-29.62l-5.12 -8.1 -5.84 -5.21c-7.02,-1.64 -4.79,-0.82 -10.39,-4.88l-12.92 -5.7c-7.02,-1.8 -14.64,-5.67 -19.98,-6.46 -10.01,-1.49 -9.93,1.32 -22.21,-1.56 -7.97,-1.87 4.98,-5.02 -19.12,-0.35 -0.88,0.17 -1.46,0.39 -2.38,0.53 -8.37,1.3 -15.45,-0.34 -24.28,-0.64 -6.19,3.44 -88.76,13.96 -101.63,13.53 -11.95,5.96 -29.99,4.96 -44.7,4.85 -39.01,2.94 -75.48,5.35 -111.91,13.84 2.65,-31.85 16.55,-78.57 25.75,-110.14 9.11,-31.23 22.85,-98.34 32.12,-127.74 2.36,-7.47 3.97,-9.65 5.88,-18.11 9.67,-42.92 25.34,-71.41 -3.55,-107.95 -15.47,-19.56 -34.45,-37.23 -53.16,-53.42 -26.69,-23.08 -56.73,-42.56 -88.89,-57.65l-40.3 -15.66c-37.56,-14.49 -39.94,-26.8 -80.86,-2.77l-11.89 9.42c-15.69,14.43 -24.3,29.71 -33.39,49.22l-122.07 365.51 -33.35 126.52c-5.86,20.3 -20.52,20.36 -43.67,25.6l-72.91 17.69c-15.47,4.16 -23.34,4.72 -38.19,9.77 -11.42,3.87 -24.63,6.71 -35.68,9.61l-211.43 65.67c-13.43,6.37 -17.84,10.57 -29.49,18.47 -29.31,19.9 -42.14,57.65 -28.23,91.74 13.35,32.7 24.19,65.81 43.72,94.84 24.41,36.29 51.55,72.22 93.63,90.21 47.98,20.5 142.16,-13.96 192.85,-25.45 12.66,-2.86 25.03,-7.51 37.53,-10.42 0,28.29 -5.92,45.43 -11.22,68.71 -5,21.98 -8.78,45.19 -14.21,68.38l-81.58 445.99c-6.4,46.86 -18.55,94.78 -20.95,141.57 -1.76,34.24 -12.49,74.41 -13.31,109.26 -0.74,31.43 -11.2,119.14 -16.67,145.86l-15.25 149.95c-27.12,0 -54.87,-7.27 -74.6,-2.67 -19.05,81.75 -24.78,171.63 -45.3,253.12 -9.6,38.11 -19.14,80.71 -31.31,117.9 -4.44,13.57 -8.88,25.35 -13.6,37.02 -20.57,50.85 -41.37,104.87 -74.58,149.23 -35.35,47.23 -70.06,78.9 -125.34,101.14 -52.87,21.29 -89.2,10.57 -124.94,-27.53 -10.95,-11.68 -22.44,-34.15 -28.02,-49.25 -18.39,-49.75 -25.74,-121.21 -25.86,-173.97 -0.07,-33.97 4.36,-63.77 7.78,-93.48 2.05,-17.88 2.23,-27.59 2.8,-47.82l25.2 -198.61c2.01,-9.45 0.68,-15.25 2.21,-24.44l11.18 -60.76c1.69,-9.18 0.81,-15.43 2.12,-24.52 0.76,-5.28 3.31,-13.16 4.28,-19.7 1.49,-9.92 1.75,-14.07 3.12,-23.53 1.38,-9.5 3.48,-12.67 4.59,-19.39 1.6,-9.73 -0.08,-14.55 2.35,-24.29 3.58,-14.28 4.63,-25.08 7.44,-40.52l24.01 -127.86c4.7,-29.44 17.15,-76.32 19.94,-102.63 2.5,-23.6 8.8,-42.35 13.33,-63.94l79.84 -367.77c2.74,-13.41 7.5,-28.49 10.3,-40.33l42.72 -183.76c5.25,-23.2 12.37,-40.59 14.56,-63.37 -1.71,-15.62 9.51,-46.27 12.92,-60.97 4.57,-19.61 8.99,-40.8 13.33,-61.16 12.96,-60.68 23.85,-66.22 -13.26,-112.77 -37.36,-46.87 -143.02,-72.86 -224.22,-79.39 -50.02,-4.02 -94.12,-13.41 -125.12,15.94 -26.69,25.27 -109.93,446.16 -117.14,490.3l-25.2 126.57c-7.42,42.11 -15.39,86.13 -24.02,127.84l-44.24 259.72c-7.82,43.83 -12.5,86.99 -20.1,131.9 -19.43,114.68 -42.1,283.27 -50.45,402.74 -3.22,46.05 -11.2,93.66 -13.08,139.19 -1.85,44.73 -1.52,259.61 5.07,294.89 17.25,92.37 28.85,160.77 69.76,233.92l14.02 20.72c0.3,0.45 0.72,1.11 1.02,1.56 13.72,20.35 33.53,45.92 53.59,60.81 92.79,68.89 179.42,85.81 295.73,68.9l63.55 -13.93c63.5,-16.65 151.11,-54.65 199.61,-103.96 6,-6.1 4.4,-3.72 10.41,-8.15l30 -25.98c13.5,-12.77 23.36,-23.38 36.33,-40.95 66.47,-90.1 68.51,-95.93 112.99,-190.73 17.45,-37.21 25.42,-77.13 38.92,-113.73 15.17,9.34 12.56,43.24 15.7,60.41 0.16,0.85 0.67,3.09 0.89,3.91l13.03 34.92c26.61,61.52 50.57,118.05 90.76,170.24 9.64,12.51 18.06,23.75 27.68,36.29 6.98,9.1 10.48,9.33 16.21,15.65 10.35,11.41 19.58,25.49 31.78,34.76l52.14 43.71c21.23,16.06 77.15,44.95 107.42,55.13 73.08,24.59 69.2,13.5 107.19,21.72 25.83,5.59 33.91,1.47 58.55,-1.21 72.84,-7.93 156.17,-38 218.37,-73.49l79.4 -51.24c43.08,-27.19 71.27,-55.91 107.49,-86.87 14.24,-12.18 20.68,-20.62 33.14,-33.44l30.43 -33.49c17.78,-19.78 37.31,-41.02 49.84,-64.74 10.79,-20.43 28.79,-35.86 38.93,-59.43l5.88 -10.41c4.42,-6.64 6.54,-12.69 10.85,-21.23 5.27,-10.45 14.75,-40.91 20.72,-47.36 11.1,5.42 14.7,26.18 17.53,37.54 3.47,13.96 7.87,27.39 12.9,40.38 20.03,51.73 45.23,92.51 74.25,138.82 26.24,41.86 50.24,70.22 83.49,102.85 13.77,13.51 25.54,25.85 43.36,36.55l31.66 21.62c50.08,30.44 48.48,32.57 109.34,50.32 14.57,4.25 30.98,4.64 46.86,7.2 64.48,10.39 76.62,11.2 141.39,-0.99 16.51,-3.1 28.19,-4.37 44.31,-8.9 52.62,-14.8 127.81,-61.02 168.22,-98.17 7.86,-7.22 8.08,-4.97 15.05,-11.54l64.28 -68.88c22.99,-29.01 44.97,-65.12 61.6,-98.26 5.4,-10.77 12.51,-33.12 18.31,-38.79 13.46,7.67 15.23,33.98 19.7,50.79 14.84,55.86 59.28,143.89 102.01,177.63l61.94 41.85c25.48,13.91 47.96,24.36 79.3,27.25 40.83,3.77 86.98,6.19 127.85,-1.71 37.59,-7.26 85.48,-37.55 117,-58.75 33.23,-22.34 29.37,-22.53 55.19,-51.39 15.82,-17.69 35.33,-35.04 47.7,-56.04 6.18,-10.49 6.5,-16.81 15.45,-22.25 14.51,18.28 10.95,95.27 34.18,131.4 16.17,25.14 64.14,61.74 88.26,76.7 9.28,5.76 17.12,8.43 26.32,13.7l21.31 10.51c7.11,2.5 5.58,2.34 7.47,3.54 3.52,2.22 4.89,4.03 11.1,7.43 5.42,2.97 8.91,4.38 13.99,7.19 9.05,5.01 17.47,10.55 27.63,14.86 18.26,7.73 43.84,11.24 65.22,17.73 22.08,6.7 50.28,3.3 64.1,-11.46 8.73,-13.16 4.41,-74.88 4.21,-95.48 -0.89,-95.73 15.79,-191.18 20.74,-285.12 3.33,-63.36 6.52,-128.32 9.96,-191.91 0.89,-16.39 5.08,-31.38 5.32,-45.24 0.37,-21.48 7.82,-125.43 12.19,-137.57 0.22,-0.6 0.59,-1.54 0.98,-2.26 7.75,-73.62 9.34,-151.65 20.49,-225.98l16.79 -169.72c0.98,-20.68 2.25,-41.7 4.56,-59.38l12.58 -112.66c4.63,-33.96 2.43,-36.2 4.56,-56.72 0.77,-7.48 3.86,-19.89 4.61,-27.36 2.35,-23.34 -0.52,-26.5 6.28,-55l26.53 -223.93c1.41,-9.54 1.27,-17.74 2.52,-29.45 1.43,-13.4 6.55,-26.54 7.64,-53.65l6.03 -55.24c0.89,-7.08 3.78,-19 4.43,-27.55 1.11,-14.38 1.07,-15.67 3.61,-28.37 6.62,-33.17 6.78,-76.59 12.99,-112.23l27.73 -222.72c2.81,-19.26 4.69,-34.77 7.74,-53.55 1.66,-10.29 0.74,-19.39 3.12,-28.85 2.47,-9.87 3.64,-15.08 5.22,-26.76 4.73,-34.98 11.49,-99.63 18.2,-131.01l9.6 -86.38c-0.35,-22.54 23.43,-146.98 27.46,-185.55 2.92,-27.99 0.55,-25.82 5.51,-19.61l1.6 -1.51c-5.88,-7.08 -0.74,-25.85 1.22,-37.73 2,-12.1 3.73,-23.04 5.63,-36.37 1.9,-13.35 7.62,-63.27 12.08,-70.07 -0.47,-13.42 7.43,-71.65 12.88,-80.98 0.33,-20.07 5.33,-38.85 7.85,-56.06l23.45 -152.63c2.27,-9.71 -1.96,-13.77 4.94,-6.94l1.23 -1.26c-5.68,-10.15 -2.33,-26.12 0.19,-38.36 2.29,-11.05 3.14,-23.83 5.61,-37.12 6.65,-35.81 2.41,-45.57 2.69,-77.58l-19.56 -31.01c-2.37,-2.09 -7.82,3.87 0.41,-5.48l-3.6 -3.7c0.1,0.88 0.06,2.5 -0.03,2.86l-2.91 3.88c-2.08,-4.21 1.88,-3.72 -2.24,-5.97zm-1202.77 3244.51l-0.77 -0.71 0.77 0.71zm-352.47 33.75l-0.83 0.89 0.83 -0.89zm-1073.77 26.8l-1.06 0.73 1.06 -0.73zm-737.66 -337.65l-0.38 -0.27 0.38 0.27zm-288.14 358.56l-0.16 1.14 0.16 -1.14zm-569.5 -52.15l-0.69 -0.57 0.69 0.57zm4.64 -1293.73l0.86 -1.19 -0.86 1.19zm175.85 -874.42l1.1 -0.7 -1.1 0.7z"/>
  <path class="fil2" d="M1158.66 2801.62c-4.26,-35.76 21.15,-36.45 57.19,-50.67l236.63 -93.59c54.01,-21.17 108.44,-38.45 162.43,-58.74 45.71,-17.17 189.54,-60.78 253.39,-76.92l85.38 -23.98c24.13,-7.95 60.93,-15.22 88.28,-20.62 92.95,-18.35 184.56,-41.86 279.76,-53.18 115.52,-13.75 186.02,-25.79 306.29,-25.37 37.11,0.13 70.54,0.29 104.69,-4.13 29.33,-3.8 219.83,5.25 263.34,8.67 18.13,1.42 36.36,-0.06 54.66,2.27l102.25 10.15c49.28,3.7 73.39,17.91 114.61,20.13l118.82 20.31c15.73,3.59 29.39,7.91 44.01,11.55l94.52 17.86c27.88,4.97 61.8,13.21 88.47,20.87 13.49,3.88 28.71,8.96 42.08,13.55 28.39,9.76 58.11,15.11 85.67,23.65 83.9,26 226.67,63.59 295.07,94.43l118.24 43.98c13.72,4.24 25.12,10.59 39.81,16.14 25.26,9.54 49.81,22.86 76.31,32.87 27.6,10.44 73.98,24.16 97.48,41.19 8.2,5.93 9.35,5.32 9.7,18.66 0.34,13.64 -2.5,38.45 -4.05,53.22 -14.56,138.46 -16.43,275.25 -29.53,413.62 -3.43,36.34 -3.98,66.95 -7.97,101.84 -7.69,67.33 -12.87,132.83 -19.83,201.09l-25.09 195.78c-4.7,31.77 -8.4,65.2 -12.87,96.07l-32.04 188.45c-14.88,60.99 -24.34,118.09 -41.62,177.39l-24.3 87.8c-8.71,37.43 -50,166.38 -66.25,208.25l-46.38 121.92c-48.94,117.61 -115.08,262.1 -181.3,369.68l-127.81 205.43c-31.96,44.45 -58.58,86.42 -90.28,128.15 -7.61,10.02 -16.32,20.62 -22.94,30.18l-123.37 153.92c-9.96,11.37 -6.22,14.28 -23.88,32.1 -5.15,5.2 -8.35,7.85 -13.4,13.24l-15.27 14.08c-11.6,9.77 -12.6,19.61 -20.76,32.43 -14.47,22.76 -63.32,57.22 -74.28,77.53 -3.24,6.02 0.63,3.15 -6.09,10.05l-26.69 26.57c-6.07,6.31 -7.18,7.07 -13.73,12.99 -6.65,6.01 -7.22,9.16 -14.38,14.93 -20.28,16.35 -29.83,42.25 -51.3,57.9 -62.48,45.56 -59.3,65.39 -85.35,80.17 -31.43,17.84 -25.39,22.81 -43.69,38.59 -15.35,13.23 -2.89,17.45 -25.09,28.24 -14.21,6.9 -19.51,16.28 -31.14,24.75 -24.45,17.79 -75.57,74.55 -100.9,93.45l-61.26 50.89c-31.19,34.65 -87.89,68.25 -104.52,84.55 -13.49,13.22 -22.41,30.67 -43.6,14.83 -7.53,-5.64 1.16,0.32 -8.09,-4.93 -8.99,-5.1 -7.25,-5.69 -14.81,-12.37 -6.06,-5.35 -9.83,-7.64 -16.06,-13.25 -32.68,-29.49 -60.45,-38.41 -88.52,-76.79 -13.67,-18.68 -46.15,-29.42 -90.54,-77.22 -22.28,-23.99 -89.79,-71.25 -119.24,-101.91 -9.67,-10.07 -15.03,-17.91 -25.48,-27.82l-30.78 -25.11c-18.5,-16.1 -38.73,-37.96 -56.02,-55.94 -18.24,-18.97 -43.5,-29.7 -58.25,-51.14 -22.04,-32.02 -80.96,-85.78 -108.69,-112.34l-29.21 -26.72c-34.81,-35.62 -40.54,-51.63 -76.05,-89.14 -70.7,-74.67 -136.38,-159.03 -199.44,-240.07 -16.57,-21.29 -30.32,-43.61 -47.1,-64.94l-89.38 -131.9c-82.36,-125.36 -192.34,-327.78 -247.09,-466.66l-14.75 -41.83c-21.65,-53.93 -37.42,-107.61 -58.95,-162.04 -10.44,-26.39 -17.29,-58.33 -26.89,-85.07 -13.92,-38.78 -22.96,-87.1 -34.94,-127.73l-11.17 -44.66c-14.01,-43.18 -20.07,-90.14 -29.8,-135.43 -3.62,-16.87 -4.25,-32 -7.68,-48.61 -9.63,-46.56 -41.58,-230.75 -46.3,-283.7 -8.74,-97.94 -27.36,-204.36 -30.53,-300.95 -1.14,-34.53 -5.79,-67.27 -8.77,-101.11 -9.53,-107.89 -11.13,-276.65 -23.92,-361.89 -3.99,-26.62 -3.68,-107.66 -9.67,-157.89zm-166.71 -147.23c-1.67,111.89 12.99,223.61 18.21,333.67 2.63,55.41 4.81,111.87 9.42,166.42 4.48,52.88 4.95,113.69 9.93,167.01 10.27,109.88 13.83,216.22 28.1,323.48 20.31,152.57 37.06,305.63 72.26,454.6 5.33,22.56 10.33,50.26 15.27,73.68 9.87,46.83 26.88,95.57 34.33,141.82 5.69,35.34 90.13,289.18 107.3,331.12 46.03,112.37 81.5,196.37 135.22,304.17 48.42,97.14 103.02,191.14 160.64,281.95 12.15,19.16 25.16,35.55 35.36,52.17 6.33,10.3 10.31,16.7 16.66,26.24 6.58,9.89 12.19,18.42 18.21,27.21 59.43,86.71 122.8,170.08 188.7,251.08 35.02,43.03 82.89,103.77 121.03,142.79 25.57,26.16 50.87,59.68 84.09,94.4 29.34,30.65 52.2,63.29 87.37,88.52 9.49,6.81 17.19,8.63 23.33,19.58 8.76,15.62 6.51,13.92 18.53,26.45 14.15,14.75 28.84,30.62 43.66,44.29 8.29,7.64 15.88,10.22 24.78,17.79l23.47 21.97c26.56,33.1 60.44,55.85 90.34,85.44 13.6,13.46 13.59,17.65 30.84,33.1 5.96,5.32 6.42,5.44 13.17,10.32l47.77 40.65c6.85,6.96 14.54,14.48 21.67,20.78l72.56 60.87c9,8.23 9.19,11.97 21.08,21.41l50.08 37.97c25.86,22.33 40.73,47.9 67.8,65.11 17.59,11.18 35.2,25.15 51.12,36.92 15.2,11.24 30.2,36.03 50.96,38.67 8.27,-1.98 23.16,-20.28 30.15,-27.39 20.33,-20.67 44.86,-37.36 67.78,-54.84 18.01,-13.75 29.98,-29.33 47.07,-43.47 27.64,-22.85 57.24,-45.01 80.81,-70.99l33.35 -28.07c39.49,-31.19 64.16,-67.42 93.14,-87.71 6.95,-4.87 11.42,-6.87 18.36,-10.97 8.61,-5.07 10.74,-8.28 17.14,-15 23.02,-24.19 8.16,-20.75 27.16,-31.75 35.68,-20.64 61.69,-63.33 94.19,-89.39 16.07,-12.87 77.25,-77.62 88.93,-92.16 27.82,-34.63 57.94,-54.14 87.27,-94 16.2,-22.01 44.61,-39.86 60.76,-61.76 8.59,-11.66 13.48,-24.4 23.85,-34.79 10.86,-10.87 20.94,-18.87 31.18,-30.12 9.7,-10.66 17.52,-21.63 25.86,-35.35 13.95,-22.94 40.02,-44.3 55.95,-66.57l54.06 -68.43c9.6,-12.24 16.39,-23.45 25.87,-35.53 29.98,-38.19 71.17,-99.68 101.18,-141.35 16.93,-23.5 30.62,-48.15 47.26,-72.88 49.33,-73.34 91.53,-150.24 137.93,-226.81 58.93,-97.26 149.82,-302.59 193.02,-411.6 35.37,-89.23 59.34,-182.98 88.97,-276.54 87.05,-274.89 120.27,-521.56 162.53,-809.04l21.94 -221.07c7.95,-150.42 27.89,-298.62 34.21,-450.29 3.19,-76.48 12.16,-149.39 15.61,-226.52 1.66,-37.23 -13.73,-34.41 -64.23,-57.44 -27.85,-12.7 -54.91,-23.01 -86.29,-36.08 -107.38,-44.74 -241.51,-93.94 -353.43,-131.06 -63.61,-21.09 -119.56,-38.88 -184.06,-58.99l-284.38 -76.76c-16.52,-3.37 -34.67,-7.54 -50.83,-10.82l-152.83 -28.68c-35.56,-6.45 -72.89,-8.88 -106.78,-16.48 -185.76,-41.67 -550.75,-34.17 -749.15,-28.48 -163.09,4.69 -323.64,40.93 -483.36,69.87 -66.98,12.13 -163.38,34.12 -225.34,55.09 -70.25,23.78 -145.23,36.51 -215.24,61.73l-207.25 69.97c-53.31,18.37 -254.85,93.73 -301.93,114.27 -28.3,12.36 -73.59,29.64 -93.69,46.6z"/>
  <path class="fil3" d="M3434.19 3889.83c1.02,11.53 -1.53,36.91 -7.88,42.66 -6.4,6.62 -21.01,62.09 -20.4,71.37 4.64,12.49 1.2,4.46 -1.7,6.07 -5.09,3.59 -0.15,-6.34 -4.79,5.51 -3.18,8.11 -1.38,4.18 -1.4,9.5 2.83,9.97 1.89,3.97 -2.65,5.46 -3.44,0.79 -4.23,-5.34 -2.31,5.63 3.62,10.29 1.67,4.06 -1.81,6.06 -7.23,4.81 -12.95,26.16 -21.46,39.91 -6.73,10.86 -20.07,25.79 -22.48,38.26 2.23,5.93 3.59,5.24 -2.47,3.46 -4.78,-2.02 -3.16,-2.02 -1.78,3.05 -0.82,5.92 -0.47,5.76 -4.07,11.65 -7.3,11.96 -3.53,6.67 -10.92,8.08 -6.25,-2.41 -5.31,-3.24 -2.49,2.8 2.72,6.09 3.97,5.44 -2.4,3.17 -4.16,0.99 -5.03,-5.47 -3.25,4.47 2.32,6.07 3.54,5.54 -2.47,2.82 -6.24,-2.58 -5.33,-3.48 -2.72,2.75 2.65,6.13 3.45,5.17 -2.68,2.6 -5.96,-2.52 -5.22,-3.63 -2.99,2.49 -1.7,7.43 1.39,1.43 -4.35,8.81 -1.51,1.93 -4.63,4.64 -6.81,6.51 -6,5.18 -8.36,6.42 -15.81,11.04 -43.72,27.07 -57.9,40.9 -112,55.28 -15.2,4.04 -31.91,5.33 -48.08,8.02 -30.09,4.98 -114.71,12.4 -144.83,7.1 -21.39,-3.77 -12.7,-23.62 -6.74,-54.43 18.2,-94.15 24.5,-168.73 41.33,-261.65 3.27,-18.05 5.05,-35.89 7.42,-53.76 1.79,-13.47 3.46,-43.78 11.3,-51.51l4.63 -14.11c5.51,-27.86 20.81,-104.27 14.62,-122.85 -2.9,-17.49 4.04,-51.2 6.98,-70.84 1.97,-13.18 0.84,-14.97 6.34,-19.81 9.42,-10.27 11.44,-66.8 14.65,-86.93 0.82,-5.12 1.65,-9.37 2.83,-13.11 9.36,-29.65 45.55,-15.02 109.66,-17.17 38.2,-1.28 103.31,7.61 136.05,25.92 43.11,24.12 48.13,23.22 72.53,64.9 7.15,12.23 5.54,13.75 14.18,15.89 4.61,0.36 4.53,-4.86 2.68,5.29 -3.91,11.2 -1.12,3.74 2.49,5.4 4.9,0.36 4.8,-4.84 2.83,5.21 -3.87,11.3 -1.18,3.75 2.65,5.48 4.03,0.34 3.97,-5.05 2.49,5.45 -3.58,11.11 -0.92,3.56 2.54,5.47 6.86,1.57 4.34,8.39 3.38,15.3 -4.48,11.07 -1.72,3.95 2.38,5.66 19.46,15.12 11.28,154.37 9.85,177.37 -0.61,9.93 -2.06,40.92 -6.89,50.4 -3.21,6.32 0.64,0.69 -3.18,3.9 -3.4,2.75 -2.6,0.76 -5.15,7.03 -1.44,3.54 -1.78,7.89 -2.36,11.52 -1.5,9.27 -3.62,13.38 -0.37,24.11 1.42,16.18 -2.48,25.22 -7.29,38.92l-9.11 27.59c-3.16,5.39 -0.96,2.22 -4,4.86 -2.76,0.86 -3.52,-5.77 -1.7,6.07 0.61,3.76 2.19,2.36 -0.63,8.84 -2.76,6.36 -1.44,3.73 -5.56,6.17 -4.19,0.93 -4.65,-4.83 -2.65,5.46 3.36,10.03 1.99,3.98 -2.31,5.63 -3.35,0.69 -4.14,-6.32 -1.81,6.06 1.25,17.71 -23.34,54.19 -34.76,71.3 -6.44,9.64 -0.37,5.04 -9.18,6.87 -6.73,-3.08 -4.95,-3.29 -2.47,3.46 2.48,5.28 3.88,4.91 -1.78,3.05 -8.15,2.92 0.4,-1.55 -5.27,2.9 -0.27,0.21 -3.8,3.55 -4.14,3.97 -4.5,5.51 -4.8,6.07 -5.58,12.86 2.51,6.3 3.74,5.77 -2.49,2.8 -6.54,-3.13 -4.93,-3.37 -2.4,3.17 2.63,10.22 1.58,4.07 -3.25,4.47 -6.13,-2.43 -5.09,-3.17 -2.47,2.82 2.68,6.33 3.61,5.44 -2.72,2.75 -6.13,-2.67 -5.28,-3.58 -2.68,2.6 2.77,6.11 3.21,4.73 -2.99,2.49 -8.01,0.52 -32.86,21.36 -46.63,30.67 -25.68,17.37 -29.75,17.71 -51.02,29.18 -28.81,15.54 -52.04,15.98 -83.44,20.72 -72.78,10.97 -53.55,8.06 -124.33,8.85 -44.58,0.49 -30.26,-14.92 -16.42,-101.92l32.01 -201.42c2.33,-18.55 13.2,-99.27 11.26,-110.67 -4.7,-13.92 11.15,-94.71 14.39,-121.17l2.14 -10.88c0.2,-0.54 0.6,-1.31 0.8,-1.77 0.19,-0.44 0.76,-1.27 0.93,-1.61 0.17,-0.33 0.55,-1.11 0.99,-1.53 2.9,-3.15 1.92,-1.16 4.46,-8.63 1.43,-4.23 1.58,-7.26 2.19,-10.66 1.41,-7.9 2.28,-14.93 3.46,-23.45 1.59,-11.44 6.31,-38.5 3.21,-47.91 -2.46,-15.08 7.62,-77.05 10.06,-102.47 1.6,-16.54 4.24,-17.07 10.82,-26.11 118.17,1.84 97.07,-8.32 207.75,15.68 51.43,11.15 119.35,62.47 121.27,102.4 -3.94,11.28 -1.09,3.69 2.68,5.29 4.41,0.37 4.44,-5 2.49,5.4 -3.62,11.43 -0.96,3.64 2.83,5.21 4.52,0.38 4.54,-5.15 2.65,5.48 -3.9,11.09 -1.07,3.67 2.49,5.45 4.27,0.32 3.97,-4.7 2.54,5.47l-1.51 6.35c2.81,20.66 0.22,3.86 4.89,8.95 4.19,0.42 4.95,-6 2.38,5.66 -2.39,8.25 6.24,34.64 6.31,52.08l-0.77 122.71c-2.05,14.78 -8.61,46.82 -5.76,56.88zm-1484.65 -722.19c-4.26,0.61 -4.49,-4.83 -2.74,5.03 -6.53,2.12 -1.03,-2.55 -4.98,3.14 -4.15,5.98 -1.83,-0.87 -2.62,8.29 -4.59,1.77 -2.3,-2.39 -4.86,2.99 -1.99,4.18 -1.26,1.7 -0.93,7.1 -4.33,0.57 -4.82,-5.44 -2.55,5.56 -4.42,0.48 -4.5,-4.99 -2.5,5.54 -4.51,0.36 -4.25,-4.67 -2.61,5.34 -4.52,0.36 -4.21,-4.61 -2.68,5.27 -4.78,0.35 -4.76,-4.9 -2.9,5.01 -4.74,0.58 -4.63,-4.6 -3.1,4.77 -4.3,0.86 -5.18,-5.36 -2.82,5.03 -4.26,1.26 -5.02,-4.45 -2.3,5.66 -4.11,1 -4.76,-4.98 -2.53,5.68 -4.3,0.72 -4.7,-5.07 -2.58,5.52 -4.52,0.52 -4.99,-5.3 -2.72,5.28 -4.62,0.49 -4.86,-5.06 -2.88,4.88 -6.01,-1.89 -3.8,-2.3 -3.53,4.82l-25.01 57.5c-44.16,94.67 -94.36,305.05 -106.35,411.28 -2.33,20.7 -11.77,57.08 -10.84,74 -7.41,8.44 -5.73,29.71 -8.92,48.72 -5.25,31.2 -9.99,120.87 -10.17,151.89 -0.17,31.54 1.5,125.8 6.29,156.45 9.58,61.19 13.61,102.08 31.05,159.95 2.07,6.88 1.09,3.4 3.17,10.09l15.83 51.02 63.48 125.14c33.02,46.89 76.3,85.12 129.96,115.28 67.22,37.79 177.81,65.44 258.11,67.33 39.95,0.95 106.07,-5.37 148.32,-13.62 0.66,-0.13 1.35,-0.28 2.03,-0.39 16.4,-2.72 31.15,-3.93 46.95,-7.07 14.65,-2.92 28.68,-6.53 42.87,-10.14 13.75,-3.5 31.83,-5.52 42.27,-14.42 14.1,-1.11 22.48,-5.9 36.73,-9.03 12.58,-2.75 27.11,-8.46 38.76,-10.4l-16.12 153.4c-5.49,7.59 -6.64,16.18 -7.67,25.77l-3.84 30.55c-0.88,5.65 0.62,-3.6 -1.07,6.56 -5.01,30.25 -3.61,42.25 -10.51,77.85l-24.69 151.35c-0.23,2.31 -0.45,5.21 -0.68,7.32l-2.47 18.9c-2.47,19.5 -12.76,54.58 -4.54,71.18 15.87,4.81 284.85,4.64 301.14,-0.26 13.45,-27.81 16.45,-102.87 25.67,-144.83l37.79 -271.29c1.79,-8.35 4.23,-9.11 5.16,-19.32 4.79,-52.47 15.22,-101.57 20.78,-149.18 3.21,-27.46 21.84,-185.45 30.39,-193.31 6.52,-4.06 22,-2.13 30.84,-0.83 15.05,2.21 14.79,3.07 18.93,17.55l19.07 54.7c0.28,-0.47 1.1,1.37 1.74,1.97 7.94,38.8 84.45,254.43 101.62,317.3 9.84,36.05 24.26,69.31 34.3,103.71 4.93,31 33.29,107.58 45.18,144.24l15.51 45.57c0.27,0.83 1.06,3.14 1.31,3.98l4.58 16.46c4.4,13.12 10.87,29.36 12.06,42.73 -0.57,6.06 -1.3,0.4 0.42,7.93 0.12,0.55 1.13,2.31 1.25,1.94 0.12,-0.38 1.09,1.12 1.6,1.71 -1.84,10.26 -0.89,3.78 2.78,5.43 -0.19,32.5 39.69,26.26 70,26.15l186.51 -0.04c36.59,-0.08 68.24,6.82 85.67,-8.35 1.35,-22.13 -5.27,-30.29 -11.62,-49.68 -16.53,-50.45 -21.79,-71.83 -39.42,-116.03 -4.35,-10.89 -4.39,-11.98 -4.74,-26.13 0.11,0.08 9.92,11.2 -2.51,1.12l-12.86 -34.45c-5.2,-16.37 -7.87,-30.19 -13.31,-45.7l-43.54 -137.4c-11.2,-44.25 -18.53,-53.53 -28.04,-88.99 -2.75,-10.28 -3.94,-14.03 -7.02,-22.46 -2.55,-6.97 -3.31,-14.96 -8.74,-19.93 0.56,-13.21 -17.97,-68.01 -25,-87.22l-5.56 -10.11c0.91,-11.95 -20.21,-71.1 -24.55,-88 -8.58,-33.45 -24.01,-65.84 -28.03,-79.51 8.78,-6.25 18.02,-8.24 31.02,-11.15 17.5,-3.91 31.87,-13.61 42.43,-17.78 14.88,-5.88 30.44,-11.63 39.85,-22.1 12.73,-12.36 65.68,-22.33 125.75,-87.18 56.55,-61.04 50.54,-41.56 95.09,-120.84 13.37,-23.78 23.82,-45.29 34.19,-72.57 26.37,-69.42 33.35,-88.89 45.18,-170.74 2.53,-17.52 3.72,-30.95 4.63,-49.44 0.9,-18.3 4.7,-31.22 5.1,-50.45 1.5,-71.74 -12.84,-128.96 -38.4,-178.15 -48.02,-92.42 -122.53,-148.31 -218.01,-184.65 -29.62,-11.28 -74.58,-24.56 -105.96,-30.06 -13.06,-2.29 -30.71,-4.85 -45.68,-7.64 -106.88,-19.87 -149.94,-10.29 -261.57,-10.42l-322.4 0.35c-31.41,0.01 -79.63,-2.82 -109.09,0.54 -23.01,2.62 -42.41,50.61 -25.5,67.54 14.37,14.37 61.28,10.24 83.29,25.97 75.79,54.14 35.5,217.3 22.35,311.75 -10.66,76.5 -26.27,156.01 -35.45,236.11l-29.05 185.6c-8.79,47.31 -18.36,138.61 -25.2,190.86 -2.95,22.46 -2.79,80.55 -17.04,90.41 -19.3,13.36 -92.06,34.4 -119.17,43.33 -33.32,10.97 -105.11,15.85 -141.56,20.53 -26.23,3.37 -67.93,-4.48 -94.38,-8.45 -11.16,-1.67 -31.54,-8.46 -39.54,-13.01 -71.69,-40.8 -99.25,-63.74 -135.49,-136.34 -53.04,-106.27 -56.38,-270.21 -46.73,-380.82 3,-34.46 2.06,-66.32 7.24,-99.76 2.82,-18.23 3.04,-29.1 4.44,-49.26l68.79 -419.6c4.67,-14.45 6.97,-24.86 10.54,-42.82 2.8,-14.14 7.88,-26.2 11.81,-41.51 7.66,-29.84 19.24,-52.46 27.18,-81.86 20.56,-76.2 103.65,-217.14 168.14,-262.5 19.57,-13.76 46.43,-26.01 71.61,-35.37 27.02,-10.04 65.08,-12.91 99.54,-8.58 19.92,2.5 29.1,1.78 45.38,7.94 13.32,5.04 25.42,9.61 37.19,16.39 23.29,13.4 41.56,30.71 53.93,55.75 35.07,70.98 14.65,156 24.17,191.48 18.41,6.4 113.17,2.71 141.22,2.65 34.03,-0.07 118.22,4.92 142.24,-4.16 2.9,-9.52 5.94,-33.44 3.8,-45.04l4.69 -49.41c-0.02,-8.8 -0.16,-17.78 -0.85,-26.55 -0.57,-7.23 -1.42,-16.7 -5.41,-22.2 1.22,-5.25 1.98,-1.87 0.99,-10.06 -0.4,-3.3 -0.05,-1.65 -1.03,-4.65 -2.14,-6.56 -0.88,-3.11 -3.4,-5.89 1.3,-7.18 1.57,-9.76 -0.15,-18.03 -0.03,-0.11 -2.61,-7.56 -2.84,-7.94 -3.24,-5.46 -1.86,-3.26 -5.25,-5.62 3,-18.09 -16.7,-43.53 -26.66,-60.69 -2.34,-4.04 -3.14,-6.56 -5.97,-10.35l-8.96 -7.19c1.98,-5.41 3.24,-4.8 -2.26,-3.15 -1.18,-9.07 -3.72,-10.01 -9.85,-16.69 -6.26,-6.82 -6.96,-8.98 -16.67,-9.97 -10.16,-14.64 -31.15,-26.2 -48.58,-36.94 -10.23,-6.31 -15.38,-11.52 -26.6,-16.41l-98.18 -33.66 -78.65 -9.98c-35.04,-4.09 -45.01,7.36 -78.57,-3.74 -36.39,-12.03 -42.39,4.2 -75.49,4.1 -12.47,-0.04 -30.53,-1.44 -42.2,0.04 -12.34,1.55 -24.83,6.03 -37.91,7.23 -67.46,6.16 -134.07,35.8 -190.77,70.19 -9.14,5.54 -17.35,10.32 -26.4,16.07 -43.47,27.61 -36.44,26.94 -73.36,59.67 -3.69,3.27 -8.04,5.63 -12.34,9.07 -4.39,3.52 -6.79,6.36 -11.15,10.22 -15.34,13.61 -31.4,28.15 -43.7,44.52 -14.01,18.67 -88.68,112.88 -88.83,132.22z"/>
  <path class="fil0" d="M3063.07 3615.4c3.1,9.41 -1.62,36.47 -3.21,47.91 -1.18,8.52 -2.05,15.55 -3.46,23.45 -0.61,3.4 -0.76,6.43 -2.19,10.66 -2.54,7.47 -1.56,5.48 -4.46,8.63 6.19,18.58 -9.11,94.99 -14.62,122.85l-4.63 14.11c1.94,11.4 -8.93,92.12 -11.26,110.67l-32.01 201.42c-13.84,87 -28.16,102.41 16.42,101.92 70.78,-0.79 51.55,2.12 124.33,-8.85 31.4,-4.74 54.63,-5.18 83.44,-20.72 21.27,-11.47 25.34,-11.81 51.02,-29.18 13.77,-9.31 38.62,-30.15 46.63,-30.67 -2.23,-6.12 -2.97,-5.01 2.99,-2.49 -2.6,-6.18 -3.45,-5.27 2.68,-2.6 -2.61,-6.23 -3.52,-5.33 2.72,-2.75 -2.62,-5.99 -3.66,-5.25 2.47,-2.82 -1.78,-9.94 -0.91,-3.48 3.25,-4.47 -2.53,-6.54 -4.14,-6.3 2.4,-3.17 -2.82,-6.04 -3.76,-5.21 2.49,-2.8 0.78,-6.79 1.08,-7.35 5.58,-12.86 0.34,-0.42 3.87,-3.76 4.14,-3.97 5.67,-4.45 -2.88,0.02 5.27,-2.9 -1.38,-5.07 -3,-5.07 1.78,-3.05 -2.48,-6.75 -4.26,-6.54 2.47,-3.46 2.41,-12.47 15.75,-27.4 22.48,-38.26 8.51,-13.75 14.23,-35.1 21.46,-39.91 -2.33,-12.38 -1.54,-5.37 1.81,-6.06 -1.92,-10.97 -1.13,-4.84 2.31,-5.63 -2,-10.29 -1.54,-4.53 2.65,-5.46 0.02,-5.32 -1.78,-1.39 1.4,-9.5 4.64,-11.85 -0.3,-1.92 4.79,-5.51 -1.82,-11.84 -1.06,-5.21 1.7,-6.07 -0.61,-9.28 14,-64.75 20.4,-71.37 -3.25,-10.73 -1.13,-14.84 0.37,-24.11 0.58,-3.63 0.92,-7.98 2.36,-11.52 2.55,-6.27 1.75,-4.28 5.15,-7.03 -2.85,-10.06 3.71,-42.1 5.76,-56.88l0.77 -122.71c-0.07,-17.44 -8.7,-43.83 -6.31,-52.08 -4.1,-1.71 -6.86,5.41 -2.38,-5.66 -4.67,-5.09 -2.08,11.71 -4.89,-8.95l1.51 -6.35c-3.46,-1.91 -6.12,5.64 -2.54,-5.47 -3.56,-1.78 -6.39,5.64 -2.49,-5.45 -3.83,-1.73 -6.52,5.82 -2.65,-5.48 -3.79,-1.57 -6.45,6.22 -2.83,-5.21 -3.61,-1.66 -6.4,5.8 -2.49,-5.4 -3.77,-1.6 -6.62,5.99 -2.68,-5.29 -8.64,-2.14 -7.03,-3.66 -14.18,-15.89 -24.4,-41.68 -29.42,-40.78 -72.53,-64.9 -32.74,-18.31 -97.85,-27.2 -136.05,-25.92 -64.11,2.15 -100.3,-12.48 -109.66,17.17 -1.18,3.74 -2.01,7.99 -2.83,13.11 -3.21,20.13 -5.23,76.66 -14.65,86.93z"/>
  <path class="fil0" d="M6893.76 3542.33c0,83.09 19.51,140.48 64.69,201.76 17.12,23.22 36.12,32.98 61.86,44.72 50.16,22.87 161.17,-3.76 204.89,-40.27 20.49,-17.1 43.7,-37.01 60.49,-56.74l2.43 -2.9c34.4,-40.78 55.36,-91.51 70.46,-142.7 11.53,-39.11 18.39,-124.92 11.09,-165.37 -8.29,-45.99 -35.02,-85.46 -71.26,-112.58 -25.12,-18.8 -34.29,-14.89 -34.29,-29.66 0,-21.06 28.35,-50.49 -20.13,-115.76 -11.33,-15.26 -14.82,-16.14 -35.37,-23.24 -5.56,-1.92 -2.95,-1.28 -10.6,-2.73 -16.98,-3.24 -45.6,-2.15 -64.46,-2.15 -109.13,0 -161.44,107.33 -193.42,192.92 -21.19,56.75 -22.1,84.31 -32.8,137.72 -6.08,30.29 -13.58,85.99 -13.58,116.98z"/>
  <path class="fil4" d="M10465.19 4042.22c-7.43,5.06 0.9,-5.25 -3.01,4.54 -0.09,0.23 -2.13,8.31 -2.14,8.37 -1.38,8.05 -0.86,11.76 -1.48,19.88 -2.1,27.3 -15.15,80.94 -12.37,110.44 -8.23,7.77 -13.01,83.2 -14.13,97.53 -0.74,9.53 -3.35,12.29 -4.56,19.42 -7.81,45.9 -13.99,116.82 -20.95,165.56 -2.96,20.69 0.83,9.03 -5.34,42.62 -2.36,12.81 -2.6,28.02 -4.21,41.09l-42.16 368.15c-0.47,11.11 -1.71,29.35 -3.32,41.98l-32.78 294.94c-3.73,25.8 -11.34,56.89 -11.89,81.37 -0.39,16.93 -1.29,26.22 -3.1,42.2 -1.38,12.23 -2.92,30.68 -4.67,43.28 -3.48,25 -13.83,63.57 -13.26,79.64l-1.88 3.66c-1.06,2.71 -17.24,53.7 -16.32,66.49l-5.52 7.74c-3.53,8.72 -8.9,27.34 -7.31,37.48 -7.12,2.15 -3.93,-0.35 -7.04,6.79 -1.73,3.98 -1.62,5.53 -1.77,12.06 -3.1,2.44 -0.55,-0.35 -3.74,3.83 -1.75,2.28 -0.6,-0.22 -3.12,4.7 -3.38,6.59 -3.65,7.54 -3.45,15.98 -3.46,2.01 -1.98,0.2 -5.41,4.58 -3.45,4.4 -27.99,54.52 -54.67,83.86 -8.45,9.29 -21.2,12.79 -24.51,26.14 -10.82,0.05 -25.06,11.93 -34.29,18.95 -0.95,0.73 -4.21,3.51 -4.36,3.66 -5.26,5.52 -1.8,-0.3 -4.51,6.37 -18.94,-2.34 -28.58,12.34 -62.12,12.29l-32.08 0.21c-48.28,-2.2 -86.16,-21.45 -110.59,-62.76 -6.9,-11.66 -5.63,-9.35 -10.3,-11.23 -0.45,-13.71 -6.17,-14.92 -12.39,-35.39 -1.35,-4.43 -0.06,-1.92 -1.98,-5.93 -2.05,-4.25 -1.05,-2.28 -3.22,-4.55l-21.38 -146.75c-1.4,-49.83 2.02,-273.7 16.07,-330.49 6.62,-26.74 14.74,-123.11 19.49,-152.95l26.06 -159 4.41 -13.74c2.99,-16.39 8.69,-36.77 8.3,-50.73 2.7,-3.09 0.5,0.99 2.88,-4.8 0.38,-0.93 1.91,-5.91 1.92,-5.97 1.29,-6.29 0.87,-9 0.68,-15.41l4.93 -13.65c1.47,-7.8 1.77,-11.95 3.02,-18.3 2.54,-12.85 5.85,-22.04 5.36,-36.92 4.22,-4.71 0.34,4.65 4.29,-6.7 1.73,-5 0.88,-3.9 1.59,-9.09 1.19,-8.59 2.41,-11.93 2.15,-22.05l13.76 -60.75 3.52 -9.67c1.25,-4.81 1.51,-8.31 2.79,-13.21 2.93,-11.19 5.24,-11.84 2.8,-25.68 4.74,-2.87 4.2,6.58 3.79,-8.04l2.16 -2.95c0.64,-1.29 2.21,-4.88 2.35,-5.48 1.51,-6.4 0.93,-6.54 0.58,-13.09 6.49,-6.69 5.45,-16.85 9.93,-32.38l17.08 -73.51c2.97,-11.49 7.78,-23.39 7.99,-37.47l4.93 -13.55c1.75,-6.88 1.94,-8.13 3.64,-15.02l16.15 -63.79c9.29,-43.88 22.27,-86.11 32.48,-127.38 13.8,-55.77 37.98,-84.76 -37.98,-132.28 -53.34,-33.37 -90.21,-17.06 -125.75,-34.11 0,-12.94 1.01,-26.55 -0.73,-39.24 -4.3,-31.36 -1.05,-49.56 -12.94,-93.61 -3.01,-11.14 -0.22,-8.82 -8.38,-13.47 1.3,-15.42 -23.92,-55.6 -33.86,-69.54 -5.74,-8.04 -0.05,-3.7 -8.96,-7.16 -0.86,-10.11 -11.5,-21.4 -19.75,-30.75l-68.3 -56.93c-7.22,-5.72 -9.33,-7.81 -19.01,-7.54 -0.26,-5.16 5.07,-5.11 -4.76,-3.13 -1.78,-4.3 -1.15,-5.92 -12.87,-11.31 -6.27,-2.87 -10.13,-4.48 -16.74,-7.23 -12.29,-5.11 -22.88,-10.37 -34.1,-13.86 -25.18,-7.83 -48.43,-15.98 -77.05,-18.87 -39.3,-3.98 -97.9,-3.2 -140.92,-3.14 -15.39,0.02 -37.17,1.63 -41.77,6.04 -23.2,-1.88 -69.02,11.23 -91.85,20.22l-9.86 6.04c-11.38,0.5 -15.45,4.16 -24.01,8.04 -8.7,3.95 -16.44,5.52 -21.42,13.38 -10.4,0.3 -19.59,8.44 -26.98,12.83 -10.33,6.13 -18.3,8.91 -23.32,19.39 -7.35,1.07 -10.42,3.45 -15.87,8.02 -0.52,0.44 -5.23,4.99 -5.42,5.24 -5.36,6.84 -2.63,1.55 -4.55,8.87 -12.07,0.08 -13.08,5 -23.78,13.43 -27.5,21.68 -52.06,47.69 -76.39,72.81 -0.38,0.4 -0.94,0.96 -1.33,1.34 -0.39,0.39 -0.97,0.92 -1.36,1.3 -16.35,15.56 -33.21,38.76 -47.38,56.54 -6.98,8.77 -6.44,2.53 -7.31,14 -17.04,6.03 -81.81,105.37 -92.49,126 -5.23,10.09 -8.6,12.97 -8.06,24.01 -7.54,1.54 -2.74,-1.06 -7.98,5.24 -0.54,0.66 -4.03,6.77 -4.98,8.34 -4.8,7.95 -7.19,9.46 -6.03,20.45 -11.12,3.69 -24.79,40.48 -30.63,52.14 -4.9,9.8 -8.73,18.2 -13.84,28.79l-38.31 86.92c-3.6,8.36 -3.73,7.11 -6.73,14.58 -5.3,13.15 -15.72,36.45 -15.38,47.96 -8.08,5.96 -6.16,6.53 -11.78,26.13 -6.19,21.6 -28.98,71.73 -28.06,91.48 -7.7,4.85 -6.45,10.95 -10.11,22.23 -19.25,59.31 -32.48,118.64 -47.27,179.2l-29.05 162.79c-1.03,7.79 -3.39,16.87 -4.79,27.17 -11.57,84.67 -24.35,182.51 -26.41,266.69l-5.17 184.05c-2.86,26.42 -20.49,-1.08 -42.86,-2.94 -17.9,26.72 -23.14,77.12 -45.37,127.82 -12.01,27.37 -18.6,43.15 -34.69,69.22 -2.84,4.61 -3.34,4.39 -6.65,9.34 -39.78,59.41 -44.52,60 -82.69,109.15 -6.59,8.49 -9.07,10.92 -16.44,18.19 -14.61,14.4 -14.94,10.65 -15.59,21.64 -14.08,0.98 -11.04,7.6 -28.5,22.2 -28.14,23.53 -43.01,37.53 -74.21,59.01l-51.36 36.57c-0.45,0.33 -1.06,0.82 -1.51,1.15 -0.45,0.33 -1.06,0.83 -1.51,1.15 -44.86,31.87 -124.66,63.84 -175.8,72 -26.29,4.19 -117,11.32 -142.61,-6.4 -10.98,-7.6 -30.2,-29.12 -37.4,-42.53 -2.77,-5.15 -5.74,-12.03 -8.1,-18.55 -1.96,-5.4 -4.73,-13.07 -6.44,-20.21 -1.04,-4.35 -1.04,-6.89 -2.29,-11.02l-4.37 -8.94c0.45,-21.24 -2.67,-30.16 -2.55,-50.75 0.11,-20.96 1.79,-36.38 2.71,-53.31 1.88,-34.93 -1.01,-72.8 0.18,-108.26 8.29,-17.46 10.42,-97.9 14.63,-127.38 2.33,-16.27 3.06,-27.44 3.88,-44.09 1.2,-24.46 6.12,-62.32 10.86,-85.06l57.8 -371.17c2.85,-12.36 6.11,-28.15 5.67,-42.39 2.08,-2.79 0.81,-0.13 2.7,-5.21l6.47 -25.48c2.27,-9.23 4.25,-24.75 4.56,-34.94 5.26,-10.31 6.16,-24.45 8.86,-36.91 3.03,-13.99 5.1,-24.29 7.65,-37.64l23.8 -114.75c2.79,-11.84 5.62,-25.91 8.52,-39.44l11.32 -57.91c2.16,-8.41 2.97,-10.23 4.92,-20.42 -6.68,-7.19 -5.81,7.73 -10.57,30.69 -2.78,13.4 -5.43,25.65 -8.17,39.94 -4.16,21.67 -47.36,215.14 -46.33,236.44 -6.2,8.36 -13.51,52.41 -13.73,65.63 -6.23,11.75 -41.76,231.38 -49.47,283.62 -2.09,14.18 -3,29.46 -5.92,42.22 -8.77,38.37 -25.59,207.12 -30.14,255.12 -2.47,25.98 -8.13,63.45 -7.31,89.13 -8.72,15.98 -8.87,197.59 -0.34,212.32 0.42,28.96 15.04,57.64 30.3,78.83 11.41,15.84 48.17,42.83 62.49,49.2 41.83,18.59 83.92,2.12 115.02,-9.93 8.01,-3.11 15.92,-3.32 22.96,-6.45 5.43,-2.41 10.37,-7.39 17.41,-10.11 6.98,-2.7 14.87,-3.78 23.02,-6.94 32.76,-12.67 58.57,-27.43 90.12,-45.27 6.77,-3.83 13.31,-6.31 19.01,-10.28l32.33 -23.65c41.79,-29.03 41.56,-28.35 76.56,-59.29 10.03,-8.88 38.8,-31.6 44.88,-40.54 7.69,-3.91 10.83,-8.31 16.56,-15.28l54.19 -65.76c6.7,-7.34 6.21,-3.99 10.26,-8.72l54.6 -83.75c34.71,-56.88 47.94,-134.14 64.7,-176.79 20.59,1.12 21.53,15.81 45.19,12.36 8.6,-34.07 5.42,-76.39 5.45,-113.34 0.07,-118.53 21.52,-329.83 44.73,-446.38 6.44,-32.33 11.67,-74.51 19.84,-103.11 14.58,-51.05 22.3,-91.91 37.88,-145.97 3.99,-13.86 12.19,-34.98 13.69,-47.81 5.82,-9.27 14.68,-42.81 20.03,-57.08 6.86,-18.27 15.78,-42.34 19.81,-60.53 7.82,-13.52 17.59,-43.45 24.12,-58l80.77 -172.39c6.29,-9.6 11.55,-22.94 18.99,-34.03 16.22,-25.29 22.45,-42.25 47.38,-78.06l53.17 -71.95c38.39,-45.28 43.98,-55.72 93.14,-104.05 7.41,-7.29 12.88,-12.75 19.85,-20.16 12.51,-13.32 32.12,-23.24 44.56,-35.21 9.18,-9.07 19.7,-15.11 25.84,-22.13 8.77,-4.93 14.35,-9.42 24.23,-15.63 7.41,-4.66 20.89,-12.1 26.07,-16.59 5.57,-1.58 42.62,-18.82 45.43,-21.42 13.99,-1.28 34.26,-10.33 49.32,-14.49 7.95,-2.2 17.3,-5.26 25.27,-6.5 11.79,-1.84 16.77,-0.85 27.12,-5.27 43.74,-2.95 144.15,-5.16 183.87,0.96 52.14,8.04 99.6,26.59 139.58,47.41l4.76 3.13c9.89,5.31 20.55,14.22 29.44,21.23 10.41,8.21 19.11,13.51 29.02,21.53 13.8,11.17 38.19,37.7 48.6,52.46 2.51,6.79 16.9,27.49 22.12,36.46 7.23,12.41 14.39,27.34 20.7,40.24 38.79,122.24 -7.95,147.62 41.87,155.99 56.07,9.41 72.92,3.47 114.7,34.45 11.47,8.5 17.82,12.79 26.37,24.09 21.94,29 14.41,41.51 4.19,78.27 -8.73,31.37 -58.68,222.08 -58.55,239.65 -5.32,7.34 -34.23,127.69 -35,143.36 -3.79,7.71 -5.09,10.17 -5.09,21.52l-3.79 8.04c-3.61,13.23 -9.56,34.16 -9.11,48.56 -7.13,9.49 -13.48,45.74 -13.76,60.75 -4.87,8.96 -7.65,25.19 -8.03,37.84 -4.46,8.88 -13.12,55.88 -13.31,68.87l-5.48 26.18c-5.11,9.8 -12.88,49.85 -12.71,64.47 -11.29,16.02 -10.24,55.13 -14.25,76.66 -4.63,24.91 -13.91,57.02 -11.81,82.34 -6.06,6.73 -19.17,130.21 -22.61,149.81 -13.85,78.76 -20.62,261.7 -16.22,330.88 1.96,30.86 10.8,135.1 24.65,149.5 1.04,16.43 9.28,36.39 17.59,45.87 5.77,14.86 24.39,35.76 33.25,44.24 14.4,13.78 24.3,21.8 49.11,28.3 47.29,12.41 94.29,5.81 132.73,-11.05l43.16 -28.98 37.42 -34.56c8.63,-10.82 41.59,-63.81 47.17,-80.02 4.18,-6.04 9.06,-15.13 10.31,-24.51l8.81 -18.85 12.83 -45.22c6.9,-14.85 17.76,-50.37 18.2,-70.15 14.5,-31.8 20.19,-118.69 24.87,-158.89 3.06,-26.25 7.81,-55.04 10.74,-79.29 3.53,-29.21 8.61,-53.52 11.01,-82.91 16.81,-205.54 47.11,-462.88 72.94,-667.44 6.77,-53.65 12.23,-108.47 19.68,-163.88 4.73,-35.24 21.67,-137.18 21.13,-165.37 5.82,-17.11 18.64,-118.09 19,-143.23 4.29,-13.07 5.45,-33.62 8.07,-48.55 8.08,-46.01 12.15,-101.55 21.43,-151.74l29.54 -199.4c9.41,-67.01 19.73,-132.89 29.09,-199.75 4.55,-32.51 12.84,-66.2 16.43,-98.6l48.48 -297.42c12.31,-83.43 31.58,-167.51 42.84,-242.76 2.44,-16.34 7.61,-30.19 10.29,-48.37 6.4,-43.37 21.11,-47.7 67.17,-48.67 35.67,-0.76 68.66,6.78 94.68,21.42 28.09,15.8 48.93,23.67 74.28,42.77 4.47,5 13.74,10.35 21.35,16.13 8.61,6.53 13.7,10.83 22.16,18.08 4.36,5.17 5.59,4.72 10.93,9.91 4.21,4.08 6.73,7.35 10.29,11.1 4.12,2.25 0.16,1.76 2.24,5.97l2.91 -3.88c0.09,-0.36 0.13,-1.98 0.03,-2.86l-5.18 0.77c-0.97,-9.07 -0.73,-6.92 -7.56,-13.76 -7.02,-7.02 -4.6,-6.7 -13.66,-7.25 -4.93,-12.4 -15.96,-16.98 -28.83,-27.5 -9.37,-7.65 -2.76,-6.8 -14.68,-6.71 -0.88,-4.17 3.66,-4.2 -12.81,-13.77l-57.09 -30.83c-31.04,-16.81 -53.37,-22.45 -90.97,-23.6 -85.59,-2.6 -73.42,24.65 -95.79,136.2 -6.39,31.88 -12.62,64.99 -18.14,96.42l-26.18 147.01c-1.98,9.1 -2.38,16.71 -4.1,25.21 -9.58,47.36 -22.19,145.03 -31.31,200.49 -1.62,9.84 -4.1,17.3 -5.1,24.22l-6.77 49.18c-16.14,99.58 -28.59,205.09 -44.89,301.48l-29.31 202.49c-1.02,8.89 -3.66,14.41 -4.78,24.54 -3.46,31.52 -18.49,105.29 -15.06,132.03zm515.4 -1207.44l19.56 31.01c-0.28,32.01 3.96,41.77 -2.69,77.58 -2.47,13.29 -3.32,26.07 -5.61,37.12 -2.52,12.24 -5.87,28.21 -0.19,38.36 0,-42.39 26.89,-122.68 8.49,-153.06 -1.48,-9.44 -10.8,-27.57 -19.56,-31.01l0.41 -5.48c-8.23,9.35 -2.78,3.39 -0.41,5.48zm-26.4 400.96c-5.45,9.33 -13.35,67.56 -12.88,80.98 -4.46,6.8 -10.18,56.72 -12.08,70.07 -1.9,13.33 -3.63,24.27 -5.63,36.37 -1.96,11.88 -7.1,30.65 -1.22,37.73 0.4,-20.9 7.7,-50.15 10.18,-70.91 3.12,-26.07 7.47,-45.73 8.75,-73.26 5.14,-10.91 4.96,-26.58 7.73,-38.16 2.42,-10.13 5.44,-30.56 5.15,-42.82 0.37,-0.53 0.83,-2.07 0.95,-1.7l3.09 -7.56c1.81,-7.05 0.96,-7.1 1.67,-14.32 0.95,-9.59 3.11,-18.27 4.92,-27.05l25.61 -165c-6.9,-6.83 -2.67,-2.77 -4.94,6.94l-23.45 152.63c-2.52,17.21 -7.52,35.99 -7.85,56.06zm-66.38 431.82l32.97 -205.16c-4.96,-6.21 -2.59,-8.38 -5.51,19.61 -4.03,38.57 -27.81,163.01 -27.46,185.55zm-2826.84 723.27c5.7,-11.4 8.43,-30.9 11.58,-45.4 1.85,-8.51 3.95,-13.26 5.69,-20.94 2.27,-9.99 3,-15.58 5.22,-25.46 -6.09,-1.36 -1.85,-4.21 -5.05,3.74l-8.28 37.63c-3.38,15.06 -9.7,35.31 -9.16,50.43 -4.72,7.25 -10.48,36.7 -12.32,48.1l-7.97 37.49c-1.64,13.87 -4.29,2.89 1.45,13.2 3.17,-17.04 6.72,-34.99 9.97,-50.07 3.87,-18.01 8.18,-27.62 8.87,-48.72zm39.58 -175.02l5.2 -15.67c2.06,-11.85 1.46,-7.32 4.32,-17.02 1.8,-6.12 2.66,-12.33 3.73,-17.58 3.53,-17.2 13.37,-68.13 23.86,-77.38l6.26 -4.7c0.33,-0.25 1.12,-0.72 1.58,-1.21 25.34,3.28 113.34,-14.65 147.13,-20.31l239.75 -32.02c18.99,-0.9 27.38,-0.93 44.81,-3.16 45.15,-5.76 148.14,-5.07 182.44,-9.39 17.71,-2.23 29.79,3.34 47.53,-24.39 2.48,-3.87 7.32,-13.3 9,-19.01 -6.4,-6.49 -5.4,6.83 -18.44,25.58 -16.5,23.74 -83.36,10.39 -129.48,15.74 -59.2,6.87 -123.19,6.14 -181.25,17.11 -56.03,10.59 -116.14,11.79 -172.78,21.76l-168.71 28.09c-16.3,1.91 -15.74,5.92 -21.04,22.26 -3.39,10.46 -6.01,25.31 -8.45,36.65 -4.82,22.38 -14.65,52.45 -15.46,74.65 -5.59,10.05 -8.01,26.78 -11.26,39.93 -2.97,11.98 -10.5,31.24 -4.53,41.78 1.05,-14.89 5.13,-27.53 8.23,-40.89 2.97,-12.81 7.99,-24.68 7.56,-40.82zm686.34 -323.25c-0.2,-8.12 -12.44,-28.61 -18.72,-34.43 -4.29,-3.97 0.66,-0.86 -4.63,-3.19 -0.79,-7.91 -1.99,-8.92 -4.67,-15.8 -4.14,8 -0.76,9.51 4.67,15.8 4.29,11.46 17.56,29.18 23.35,37.62 5.4,11.68 13.21,21.24 19.36,33.87 8.45,17.35 6.9,38.23 11.23,46.15 2.16,-31.15 0.8,-33.32 -16.76,-64.44 -1.9,-3.36 -2.83,-5.69 -4.87,-8.45 -5.77,-7.79 -6.12,-6.2 -8.96,-7.13zm-30.69 -59.2c-3.96,10.03 -5.15,6.43 1.27,4.72l-1.27 -4.72zm-14.05 -17.89c-0.9,-10.93 -4.92,-13.78 -10.99,-21.62 -1.33,-1.72 -6.52,-8.05 -7.31,-8.69 -10.36,-8.4 -0.36,-4.33 -11.64,-4.13 -3.18,-11.41 -16.92,-14.65 -32.9,-20.59 -10.41,-3.87 -35.42,-8.24 -49.39,-6.49 1.63,-9.32 -2.33,-8.7 -7.43,-11.32 -0.05,-8.68 -1.94,-10.89 -4.54,-16.72 -4.9,-10.97 -0.2,-7.62 -8.83,-12.9 -1.05,-7.72 0.67,-4.44 -5.12,-8.1 -0.99,-8.73 3.77,-3.99 -5.84,-5.21 -1.21,-2.46 0.28,-2.97 -1.82,-5.49l-8.57 0.61c-1.51,-2.99 0.12,-3.3 -2.09,-5.94l-10.83 0.24c-3.66,-5.64 -8.97,-7.38 -17.02,-9.7 -6.99,-2.02 -15.48,-3.54 -22.75,-3.9 -14.18,-0.7 -28.54,-0.34 -42.17,3.18 -6.27,1.61 0.23,-1.5 -6.03,1.94 -17.32,0.64 -37.68,2.13 -51.14,4.84 -11.71,2.35 -12.56,2.52 -25.69,3.62l-18.47 2.96c-5.56,1.48 -1.34,-0.63 -6.33,2.11 -14.12,0.08 -35.58,0.18 -44.7,4.85 14.71,0.11 32.75,1.11 44.7,-4.85 12.87,0.43 95.44,-10.09 101.63,-13.53 8.83,0.3 15.91,1.94 24.28,0.64 0.92,-0.14 1.5,-0.36 2.38,-0.53 24.1,-4.67 11.15,-1.52 19.12,0.35 12.28,2.88 12.2,0.07 22.21,1.56 5.34,0.79 12.96,4.66 19.98,6.46l12.92 5.7c5.6,4.06 3.37,3.24 10.39,4.88l5.84 5.21 5.12 8.1c3.29,8.42 9.63,25.3 13.37,29.62l7.43 11.32c13.03,9.81 25.9,1.4 45.01,8.11 14.6,5.13 25,11.5 37.28,18.97 6.1,5.48 11.07,7.4 16.94,14.72 6.75,8.41 6.12,13.2 13,19.72 1.36,4.04 2.77,7.42 4.73,10.69 6.54,10.92 1.2,8.16 8.24,6.6 -1.8,-3.48 -3.41,-7.03 -5.25,-9.76 -1.28,-1.89 -1.89,-2.74 -3.51,-4.35 -4.35,-4.33 0.57,-0.37 -4.21,-3.18z"/>
  <path class="fil4" d="M6929.5 3931.34l-1.1 0.7 -71.18 322.45c-2.1,12.59 -4.19,16.63 -5.7,26.28 -1.91,12.19 -3.07,17.69 -5.06,26.91 -4.11,18.95 -6.78,38.51 -10.77,55.84l-10.87 53.08c-13.56,72.7 -30.88,147.97 -40.44,220.67 -2.64,20.06 -6.68,35.19 -10.76,55.85l-9.85 54.1c-4.49,19.53 -5.1,38.03 -10.36,58.05l-0.86 1.19c0,28.74 -7.49,53.56 -12.25,79.82l-23.06 160.79c-0.61,3.97 -3.32,12.62 -4,17.31l-9.75 83.51c-13.55,73.4 -25.46,197.19 -30.96,270.12 -0.6,8.07 -2.7,11.79 -4.17,19.81 -3.83,20.93 -2.67,44.63 -3.72,65.56 -0.72,14.43 -5.02,24.6 -5.44,39.85 -0.89,32.63 -2.59,59.56 -2.57,90.68l0.14 135.75c4.55,55.02 10.57,107.28 23.22,160.62 10.36,43.67 27.6,98.82 50.12,136.39 6.82,11.39 12.06,21.56 17.11,32.95l0.69 0.57c6.24,5.42 25.08,32.53 47.87,52.68 40.97,36.23 70.44,52.74 126.94,70.23 82.74,25.61 174.34,17.13 255.14,-9.34 39.54,-12.96 67,-22.51 104.48,-42.06 10.65,-5.55 22.79,-14.11 34.91,-18.22l0.16 -1.14c15.45,-13.44 41.23,-27.38 59.26,-46.19 12.89,-13.45 34.63,-29.49 54.67,-51.9 3.47,-3.89 1.62,-1.9 4.68,-5.98l50.03 -67.2c19.37,-26.34 46.64,-76.39 60.93,-106.93l25.45 -59.81c6.22,-14.61 19.02,-48.11 19.41,-65.85l5.33 0c1.27,15.19 7.02,28.85 8,45.03l0.38 0.27c11.72,26.48 36.1,89.89 48.29,108.48l26.87 50.43c13.33,25.52 32.27,46.59 46.45,68.13l117.03 114.78c22.14,16.7 16.98,12.06 36.71,21.91 125.22,62.5 218.3,76.78 353.1,22.64 8.71,-3.5 17.74,-6.45 26.99,-10.32l81.16 -37.67 1.06 -0.73c8.28,-7.95 93.07,-59.45 121.11,-83.32l2.91 -2.42c0.42,-0.36 1.02,-0.87 1.44,-1.23l105.15 -100.01c0.35,-0.42 0.85,-1.04 1.2,-1.46l36.57 -40.7c4.72,-5.86 4.74,-8.33 9.51,-14.47 29.29,-37.73 53.58,-74.02 74.77,-117.07 4.31,-8.76 12.14,-25.14 12.37,-35.59 14.69,3.92 18.01,41.81 28.15,65.11 0.72,1.66 1.97,4.1 2.6,5.45l87.2 157.82c17.95,26.27 61.9,79.14 84.13,97.1l89.38 62.49c43.95,28.62 98.65,33.7 144.79,41.72 9.18,1.6 24.05,5.97 32.99,6.98 28.4,3.2 105.92,-9.72 133.9,-17.38 23.91,-6.55 56.07,-22.05 78.09,-33.81 11.42,-6.1 14.2,-10.44 26.68,-15.12l0.83 -0.89c7.71,-4.59 12.29,-8.28 18.63,-12.47l84.62 -69.91c11.41,-11.37 18.15,-21.05 29.3,-31.98l52.76 -69.8c1.93,-3.45 2.77,-5.32 4.74,-8.56l27.51 -52.44c4.14,-9.68 4.11,-14.92 11.58,-20.4l9.56 33.07c3.33,13.42 6.26,22.41 10.96,34.34 27.02,68.65 18.69,54.91 56.94,110.84 0.75,1.09 1.95,2.95 3.21,4.82l29.23 34.69c5.18,4.94 7.41,7.33 12.66,13.34l0.77 0.71 36.92 23.63c0.49,0.32 1.17,0.7 1.66,1.01 67.95,42.39 86.74,41.51 173.84,42 65.31,0.38 118.19,-29.59 172.65,-64.49 30.17,-19.34 28.64,-24.07 50.46,-45.46 9.54,-9.34 13.78,-15.93 22.63,-25.32 2.4,-2.54 2.91,-3.08 5.05,-5.6l3.61 -4.38c17.33,-20.44 26.48,-41.48 33.33,-43.96 6.6,13.77 8,82.86 24.08,111.85 16.05,28.96 15.16,24.56 39.01,46.2l42.88 34.39c26.15,20.66 46.11,26.06 66.43,37.45 0.71,0.4 2.7,1.56 3.41,1.96 0.51,0.29 1.18,0.68 1.69,0.97l8.77 4.54c0.54,0.28 1.23,0.63 1.75,0.92 16.5,8.95 14.43,10.53 36.19,19.78l55.51 16.43c29.64,7.1 48.66,13.18 75.73,-1.63 14.56,-7.98 11.82,-21.41 12.83,-42.84 3.43,-72.88 0.53,-118.32 9.68,-201.1 1.64,-14.87 1.26,-29.22 2.82,-42.46l18.95 -306.12c-0.06,-15.77 1.43,-27.58 2.84,-42.46 5.05,-53.49 10.41,-69.97 10.41,-132.12 -0.39,0.72 -0.76,1.66 -0.98,2.26 -4.37,12.14 -11.82,116.09 -12.19,137.57 -0.24,13.86 -4.43,28.85 -5.32,45.24 -3.44,63.59 -6.63,128.55 -9.96,191.91 -4.95,93.94 -21.63,189.39 -20.74,285.12 0.2,20.6 4.52,82.32 -4.21,95.48 -13.82,14.76 -42.02,18.16 -64.1,11.46 -21.38,-6.49 -46.96,-10 -65.22,-17.73 -10.16,-4.31 -18.58,-9.85 -27.63,-14.86 -5.08,-2.81 -8.57,-4.22 -13.99,-7.19 -6.21,-3.4 -7.58,-5.21 -11.1,-7.43 -1.89,-1.2 -0.36,-1.04 -7.47,-3.54l-21.31 -10.51c-9.2,-5.27 -17.04,-7.94 -26.32,-13.7 -24.12,-14.96 -72.09,-51.56 -88.26,-76.7 -23.23,-36.13 -19.67,-113.12 -34.18,-131.4 -8.95,5.44 -9.27,11.76 -15.45,22.25 -12.37,21 -31.88,38.35 -47.7,56.04 -25.82,28.86 -21.96,29.05 -55.19,51.39 -31.52,21.2 -79.41,51.49 -117,58.75 -40.87,7.9 -87.02,5.48 -127.85,1.71 -31.34,-2.89 -53.82,-13.34 -79.3,-27.25l-61.94 -41.85c-42.73,-33.74 -87.17,-121.77 -102.01,-177.63 -4.47,-16.81 -6.24,-43.12 -19.7,-50.79 -5.8,5.67 -12.91,28.02 -18.31,38.79 -16.63,33.14 -38.61,69.25 -61.6,98.26l-64.28 68.88c-6.97,6.57 -7.19,4.32 -15.05,11.54 -40.41,37.15 -115.6,83.37 -168.22,98.17 -16.12,4.53 -27.8,5.8 -44.31,8.9 -64.77,12.19 -76.91,11.38 -141.39,0.99 -15.88,-2.56 -32.29,-2.95 -46.86,-7.2 -60.86,-17.75 -59.26,-19.88 -109.34,-50.32l-31.66 -21.62c-17.82,-10.7 -29.59,-23.04 -43.36,-36.55 -33.25,-32.63 -57.25,-60.99 -83.49,-102.85 -29.02,-46.31 -54.22,-87.09 -74.25,-138.82 -5.03,-12.99 -9.43,-26.42 -12.9,-40.38 -2.83,-11.36 -6.43,-32.12 -17.53,-37.54 -5.97,6.45 -15.45,36.91 -20.72,47.36 -4.31,8.54 -6.43,14.59 -10.85,21.23l-5.88 10.41c-10.14,23.57 -28.14,39 -38.93,59.43 -12.53,23.72 -32.06,44.96 -49.84,64.74l-30.43 33.49c-12.46,12.82 -18.9,21.26 -33.14,33.44 -36.22,30.96 -64.41,59.68 -107.49,86.87l-79.4 51.24c-62.2,35.49 -145.53,65.56 -218.37,73.49 -24.64,2.68 -32.72,6.8 -58.55,1.21 -37.99,-8.22 -34.11,2.87 -107.19,-21.72 -30.27,-10.18 -86.19,-39.07 -107.42,-55.13l-52.14 -43.71c-12.2,-9.27 -21.43,-23.35 -31.78,-34.76 -5.73,-6.32 -9.23,-6.55 -16.21,-15.65 -9.62,-12.54 -18.04,-23.78 -27.68,-36.29 -40.19,-52.19 -64.15,-108.72 -90.76,-170.24l-13.03 -34.92c-0.22,-0.82 -0.73,-3.06 -0.89,-3.91 -3.14,-17.17 -0.53,-51.07 -15.7,-60.41 -13.5,36.6 -21.47,76.52 -38.92,113.73 -44.48,94.8 -46.52,100.63 -112.99,190.73 -12.97,17.57 -22.83,28.18 -36.33,40.95l-30 25.98c-6.01,4.43 -4.41,2.05 -10.41,8.15 -48.5,49.31 -136.11,87.31 -199.61,103.96l-63.55 13.93c-116.31,16.91 -202.94,-0.01 -295.73,-68.9 -20.06,-14.89 -39.87,-40.46 -53.59,-60.81 -0.3,-0.45 -0.72,-1.11 -1.02,-1.56l-14.02 -20.72c-40.91,-73.15 -52.51,-141.55 -69.76,-233.92 -6.59,-35.28 -6.92,-250.16 -5.07,-294.89 1.88,-45.53 9.86,-93.14 13.08,-139.19 8.35,-119.47 31.02,-288.06 50.45,-402.74 7.6,-44.91 12.28,-88.07 20.1,-131.9l44.24 -259.72c8.63,-41.71 16.6,-85.73 24.02,-127.84l25.2 -126.57c7.21,-44.14 90.45,-465.03 117.14,-490.3 31,-29.35 75.1,-19.96 125.12,-15.94 81.2,6.53 186.86,32.52 224.22,79.39 37.11,46.55 26.22,52.09 13.26,112.77 -4.34,20.36 -8.76,41.55 -13.33,61.16 -3.41,14.7 -14.63,45.35 -12.92,60.97 4.15,-7.8 8.57,-29.69 11.12,-41.51l20.76 -85.82c12.45,-48.14 20.34,-71.09 -19.47,-112.22l-4.07 -3.92c-28.96,-26.78 -49.94,-37 -87.16,-48.74l-31.92 -8c-41.64,-12.69 -81.38,-17.07 -126.98,-19.6 -83.24,-4.62 -106.26,-5.16 -126.87,85.34z"/>
  <path class="fil5" d="M2796.24 6758.3c15.76,0 19.55,-3.76 30.92,-14 9.15,-8.25 14.86,-12.56 23.95,-21.35 5.14,-4.97 7.2,-5.7 11.69,-9.62l22.01 -20.62c0.57,-0.53 2.14,-2.1 2.72,-2.61 18.31,-16.02 41.43,-27.96 59.22,-44.7l15.07 -16.9c5.18,-4.71 7.41,-5.04 13.29,-10.69 22.02,-21.18 54.58,-42.93 73.14,-65.42l74.84 -63.7c12.26,-8.87 12.92,-14.15 23.88,-24.08l10.8 -10.51c22.36,-23.46 48.79,-43.58 70.98,-67.57l60.66 -56.58c5.22,-5.21 5.35,-5.23 11.52,-9.79 14.45,-10.66 23.55,-23.66 35.39,-36.56l39.41 -37.85c0.41,-0.37 0.99,-0.9 1.39,-1.28l22.62 -22.67c0.56,-0.54 2.09,-2.15 2.62,-2.71l249.49 -267.41c5.94,-6.77 12.86,-19.99 17.76,-27.54l11.17 -12.81c0.55,-0.54 2.08,-2.15 2.64,-2.69l29.81 -34.13c0.4,-0.7 1.52,-2.72 1.91,-3.42 13.72,-23.9 35.88,-40.84 50.81,-63.76 4.4,-6.77 11.32,-9.08 15.21,-16.76 0.28,-0.56 0.53,-1.31 0.8,-1.87l16.43 -23.54c0.65,-0.89 4.81,-6.03 5.97,-7.35l25.94 -35.34c0.37,-0.4 0.98,-0.91 1.35,-1.31 0.37,-0.41 0.97,-0.92 1.34,-1.33l10.69 -15.95c0.46,-0.64 1.87,-2.37 2.33,-3l13.21 -16.1c9.85,-8.41 15.58,-19.94 22.86,-30.43l2.13 -3.2c0.32,-0.46 0.76,-1.12 1.1,-1.57l4.84 -5.81c0.35,-0.43 0.85,-1.04 1.18,-1.48l5.57 -7.75c0.34,-0.45 0.86,-1.03 1.2,-1.47l40.21 -55.71c0.32,-0.48 0.73,-1.14 1.04,-1.63 0.31,-0.48 0.73,-1.14 1.03,-1.63l16.09 -23.88c0.35,-0.42 0.84,-1.04 1.19,-1.47l22.14 -33.82c0.32,-0.46 0.77,-1.1 1.1,-1.56l15.73 -21.57c0.28,-0.54 0.59,-1.25 0.87,-1.79l39.34 -61.92c0.32,-0.45 0.81,-1.07 1.15,-1.51l6.85 -9.13c3.12,-5.25 1.48,-3.27 3.52,-7.14l30.19 -49.75c0.3,-0.48 0.79,-1.09 1.11,-1.55 0.32,-0.46 0.84,-1.05 1.17,-1.5 0.33,-0.45 0.84,-1.04 1.17,-1.49l5.54 -7.78c0.33,-0.46 0.79,-1.09 1.12,-1.55l29.26 -48c0.27,-0.54 0.62,-1.23 0.89,-1.78l6.58 -14.73c0.29,-0.52 0.66,-1.2 0.97,-1.7l18.75 -31.87c0.27,-0.54 0.61,-1.24 0.9,-1.77l25.53 -46.35c0.28,-0.51 0.63,-1.2 0.91,-1.71l3 -4.9c0.31,-0.54 0.76,-1.11 1.08,-1.68 5.21,-9.37 1.9,3.37 4.84,-11.23 -10.12,5.02 -0.47,-1.13 -6.19,4.48l-29.47 51.18c-22.21,43.2 -47.69,86.99 -74.66,127.56l-33.43 51.98c-3.73,6.35 -5.72,12.45 -10.34,18.78l-46.17 68.33c-4.48,6.41 -5.39,11.08 -10.91,18.42l-29.88 42.39c-5.43,9.1 0.45,1 -4.93,8.1 -3.18,4.2 -3.57,3.8 -7.12,8.89l-17.17 22.72c-5.18,6.96 -6.88,10.76 -11.78,17.6 -4.58,6.38 -2.1,1.69 -6.54,9.78 -10.88,19.86 -29.31,36.96 -42.31,56.09 -17.39,25.58 -38.89,49.11 -56.64,73.92l-58.04 72.01c-10.64,11.01 -20.32,17.84 -25.37,31.88 -3.84,10.68 -9.54,11.96 -16.42,19.75 -0.04,0.05 -3.1,3.9 -3.58,4.46l-21.05 20.88c-11.69,10.44 -5.19,0.19 -12.76,14.75 -7.15,13.78 -7.45,6.2 -12.84,16.55 -4.8,9.23 0.03,11.01 -11.42,17.79 -21.86,12.95 -30.09,38.91 -51.57,52.25l-30.82 34.39c-4.96,15.18 -17.5,19.72 -28.32,31.27l-48.99 52.07c-1.95,2.83 -4.45,6.21 -5.83,7.71l-14.77 11.79c-0.33,0.37 -0.79,1.01 -1.1,1.41l-34.91 36.97c-5.07,5.71 2.6,-1.13 -3.86,4.35l-19.8 14.95c-5.45,6.61 -5.87,3.8 -13.96,5.67 9.44,17.16 -8.95,23.72 -18.6,33.7 -6.98,7.22 -4.63,8.63 -13.89,15.42 -25.04,18.36 -22.34,19.93 -40.57,42.14l-11.85 11.84c-7.78,5.58 -10.25,6.94 -22.07,7.52 -0.81,9.43 -0.59,9.36 -5.41,15.55 -10.33,13.25 -24.25,17.52 -33.8,27.77 -1.41,1.52 -2.48,3.47 -5.07,5.44 -0.76,0.57 -2.13,1.32 -2.96,1.75 -24.76,13.1 -0.39,10.73 -21.55,20.36 -1.95,0.89 -9.63,3.41 -13.1,4.26 4.52,-0.14 2.55,-3.92 4.08,4.18 2.22,11.76 -4.47,7.44 -13.84,17.88l-34.58 27.18c-7.73,6.59 -3.99,12.65 -10.87,18.37 -5.16,4.28 -10.7,7.34 -12.91,15.73 -14.57,-0.93 -15.91,-2.19 -23.7,10.93 -14.75,24.85 -42.67,33.71 -58.04,54.32 -9.76,13.1 -7.83,12.37 -22.03,23.22l-17.42 14.63c-10.17,6.25 -3.62,1.7 -14.18,4.99 -10.73,3.33 -7.79,5.46 -13.09,12.83l-20.25 19.96c-16.96,10.74 -19.96,19.03 -34.09,32.41 -4.15,3.93 -6.49,5.16 -10.49,8.36 -4.78,3.82 -4.95,5.17 -9.58,8.89 -11.27,9.06 -14.54,3.57 -23.85,13.5 -9.71,10.35 -20.38,15.46 -30.64,27.98l-18.3 18.95c-9.04,7.43 -23.1,17.12 -29.53,26.15z"/>
  <path class="fil5" d="M8476.44 1738.51l-47.96 0 10.65 8.01c14.99,8.09 28.58,5.03 37.31,-8.01z"/>
 </g>
</svg>
